<?xml version="1.0" standalone="no"?>
<!DOCTYPE svg PUBLIC "-//W3C//DTD SVG 1.1//EN" "http://www.w3.org/Graphics/SVG/1.1/DTD/svg11.dtd" >
<svg xmlns="http://www.w3.org/2000/svg">
<metadata></metadata>
<defs>
<font id="enhanced_dot_digital-7regular" horiz-adv-x="1228" >
<font-face units-per-em="2048" ascent="1536" descent="-512" />
<missing-glyph horiz-adv-x="500" />
<glyph horiz-adv-x="2048" />
<glyph horiz-adv-x="2048" />
<glyph unicode="&#xd;" />
<glyph unicode=" " />
<glyph unicode="!" horiz-adv-x="409" d="M0 0v102h102v-102h-102zM0 410v102h102v-102h-102zM0 614v103h102v-103h-102zM0 819v103h102v-103h-102zM0 1024v102h102v-102h-102zM0 1229v102h102v-102h-102z" />
<glyph unicode="&#x22;" horiz-adv-x="819" d="M0 819v103h102v-103h-102zM0 1024v102h102v-102h-102zM0 1229v102h102v-102h-102zM410 819v103h102v-103h-102zM410 1024v102h102v-102h-102zM410 1229v102h102v-102h-102z" />
<glyph unicode="#" d="M0 205v102h102v-102h-102zM0 1024v102h102v-102h-102zM205 0v102h102v-102h-102zM205 205v102h102v-102h-102zM205 410v102h102v-102h-102zM205 614v103h102v-103h-102zM205 819v103h102v-103h-102zM205 1024v102h102v-102h-102zM205 1229v102h102v-102h-102zM410 205 v102h102v-102h-102zM410 1024v102h102v-102h-102zM614 0v102h103v-102h-103zM614 205v102h103v-102h-103zM614 410v102h103v-102h-103zM614 614v103h103v-103h-103zM614 819v103h103v-103h-103zM614 1024v102h103v-102h-103zM614 1229v102h103v-102h-103zM819 205v102h103 v-102h-103zM819 1024v102h103v-102h-103z" />
<glyph unicode="$" d="M0 205v102h102v-102h-102zM0 819v103h102v-103h-102zM0 1024v102h102v-102h-102zM205 0v102h102v-102h-102zM205 614v103h102v-103h-102zM205 1229v102h102v-102h-102zM410 0v102h102v-102h-102zM410 -102h102v-103h-102v103zM410 307v103h102v-103h-102zM410 614v103 h102v-103h-102zM410 922v102h102v-102h-102zM410 1229v102h102v-102h-102zM410 1434v102h102v-102h-102zM614 0v102h103v-102h-103zM614 614v103h103v-103h-103zM614 1229v102h103v-102h-103zM819 205v102h103v-102h-103zM819 410v102h103v-102h-103zM819 1024v102h103v-102 h-103z" />
<glyph unicode="%" horiz-adv-x="1433" d="M0 0v102h102v-102h-102zM0 819v103h102v-103h-102zM0 1024v102h102v-102h-102zM205 205v102h102v-102h-102zM205 819v103h102v-103h-102zM205 1024v102h102v-102h-102zM410 410v102h102v-102h-102zM614 614v103h103v-103h-103zM819 0v102h103v-102h-103zM819 205v102h103 v-102h-103zM819 819v103h103v-103h-103zM1024 0v102h102v-102h-102zM1024 205v102h102v-102h-102zM1024 1024v102h102v-102h-102z" />
<glyph unicode="&#x26;" horiz-adv-x="1433" d="M0 205v102h102v-102h-102zM0 410v102h102v-102h-102zM0 819v103h102v-103h-102zM0 1024v102h102v-102h-102zM205 0v102h102v-102h-102zM205 614v103h102v-103h-102zM205 1229v102h102v-102h-102zM410 0v102h102v-102h-102zM410 614v103h102v-103h-102zM410 1229v102h102 v-102h-102zM614 205v102h103v-102h-103zM614 410v102h103v-102h-103zM614 819v103h103v-103h-103zM614 1024v102h103v-102h-103zM819 0v102h103v-102h-103zM819 614v103h103v-103h-103zM1024 0v102h102v-102h-102zM1024 614v103h102v-103h-102z" />
<glyph unicode="'" horiz-adv-x="409" d="M0 819v103h102v-103h-102zM0 1024v102h102v-102h-102zM0 1229v102h102v-102h-102z" />
<glyph unicode="(" horiz-adv-x="819" d="M0 205v102h102v-102h-102zM0 410v102h102v-102h-102zM0 614v103h102v-103h-102zM0 819v103h102v-103h-102zM0 1024v102h102v-102h-102zM205 0v102h102v-102h-102zM205 1229v102h102v-102h-102zM410 0v102h102v-102h-102zM410 1229v102h102v-102h-102z" />
<glyph unicode=")" horiz-adv-x="819" d="M0 0v102h102v-102h-102zM0 1229v102h102v-102h-102zM205 0v102h102v-102h-102zM205 1229v102h102v-102h-102zM410 205v102h102v-102h-102zM410 410v102h102v-102h-102zM410 614v103h102v-103h-102zM410 819v103h102v-103h-102zM410 1024v102h102v-102h-102z" />
<glyph unicode="*" d="M0 614v103h102v-103h-102zM205 205v102h102v-102h-102zM205 614v103h102v-103h-102zM205 1024v102h102v-102h-102zM410 410v102h102v-102h-102zM410 614v103h102v-103h-102zM410 819v103h102v-103h-102zM614 205v102h103v-102h-103zM614 614v103h103v-103h-103zM614 1024 v102h103v-102h-103zM819 614v103h103v-103h-103z" />
<glyph unicode="+" d="M0 614v103h102v-103h-102zM205 614v103h102v-103h-102zM410 205v102h102v-102h-102zM410 410v102h102v-102h-102zM410 614v103h102v-103h-102zM410 819v103h102v-103h-102zM410 1024v102h102v-102h-102zM614 614v103h103v-103h-103zM819 614v103h103v-103h-103z" />
<glyph unicode="," horiz-adv-x="614" d="M0 0v102h102v-102h-102zM205 -102h102v-103h-102v103z" />
<glyph unicode="-" d="M0 614v103h102v-103h-102zM205 614v103h102v-103h-102zM410 614v103h102v-103h-102zM614 614v103h103v-103h-103zM819 614v103h103v-103h-103z" />
<glyph unicode="." horiz-adv-x="409" d="M0 0v102h102v-102h-102z" />
<glyph unicode="/" horiz-adv-x="1433" d="M0 0v102h102v-102h-102zM205 205v102h102v-102h-102zM410 410v102h102v-102h-102zM614 614v103h103v-103h-103zM819 819v103h103v-103h-103zM1024 1024v102h102v-102h-102z" />
<glyph unicode="0" d="M0 205v102h102v-102h-102zM0 410v102h102v-102h-102zM0 614v103h102v-103h-102zM0 819v103h102v-103h-102zM0 1024v102h102v-102h-102zM205 0v102h102v-102h-102zM205 410v102h102v-102h-102zM205 1229v102h102v-102h-102zM410 0v102h102v-102h-102zM410 614v103h102 v-103h-102zM410 1229v102h102v-102h-102zM614 0v102h103v-102h-103zM614 819v103h103v-103h-103zM614 1229v102h103v-102h-103zM819 205v102h103v-102h-103zM819 410v102h103v-102h-103zM819 614v103h103v-103h-103zM819 819v103h103v-103h-103zM819 1024v102h103v-102h-103 z" />
<glyph unicode="1" d="M0 0v102h102v-102h-102zM0 819v103h102v-103h-102zM205 0v102h102v-102h-102zM205 1024v102h102v-102h-102zM410 0v102h102v-102h-102zM410 205v102h102v-102h-102zM410 410v102h102v-102h-102zM410 614v103h102v-103h-102zM410 819v103h102v-103h-102zM410 1024v102h102 v-102h-102zM410 1229v102h102v-102h-102zM614 0v102h103v-102h-103zM819 0v102h103v-102h-103z" />
<glyph unicode="2" d="M0 0v102h102v-102h-102zM0 205v102h102v-102h-102zM0 410v102h102v-102h-102zM0 1024v102h102v-102h-102zM205 0v102h102v-102h-102zM205 614v103h102v-103h-102zM205 1229v102h102v-102h-102zM410 0v102h102v-102h-102zM410 614v103h102v-103h-102zM410 1229v102h102 v-102h-102zM614 0v102h103v-102h-103zM614 614v103h103v-103h-103zM614 1229v102h103v-102h-103zM819 0v102h103v-102h-103zM819 819v103h103v-103h-103zM819 1024v102h103v-102h-103z" />
<glyph unicode="3" d="M0 205v102h102v-102h-102zM0 1024v102h102v-102h-102zM205 0v102h102v-102h-102zM205 1229v102h102v-102h-102zM410 0v102h102v-102h-102zM410 614v103h102v-103h-102zM410 1229v102h102v-102h-102zM614 0v102h103v-102h-103zM614 614v103h103v-103h-103zM614 1229v102 h103v-102h-103zM819 205v102h103v-102h-103zM819 410v102h103v-102h-103zM819 819v103h103v-103h-103zM819 1024v102h103v-102h-103z" />
<glyph unicode="4" d="M0 410v102h102v-102h-102zM0 614v103h102v-103h-102zM205 410v102h102v-102h-102zM205 819v103h102v-103h-102zM410 410v102h102v-102h-102zM410 1024v102h102v-102h-102zM614 410v102h103v-102h-103zM614 1229v102h103v-102h-103zM819 0v102h103v-102h-103zM819 205v102 h103v-102h-103zM819 410v102h103v-102h-103zM819 614v103h103v-103h-103zM819 819v103h103v-103h-103zM819 1024v102h103v-102h-103zM819 1229v102h103v-102h-103z" />
<glyph unicode="5" d="M0 0v102h102v-102h-102zM0 614v103h102v-103h-102zM0 819v103h102v-103h-102zM0 1024v102h102v-102h-102zM0 1229v102h102v-102h-102zM205 0v102h102v-102h-102zM205 614v103h102v-103h-102zM205 1229v102h102v-102h-102zM410 0v102h102v-102h-102zM410 614v103h102v-103 h-102zM410 1229v102h102v-102h-102zM614 0v102h103v-102h-103zM614 614v103h103v-103h-103zM614 1229v102h103v-102h-103zM819 205v102h103v-102h-103zM819 410v102h103v-102h-103zM819 1229v102h103v-102h-103z" />
<glyph unicode="6" d="M0 205v102h102v-102h-102zM0 410v102h102v-102h-102zM0 614v103h102v-103h-102zM0 819v103h102v-103h-102zM0 1024v102h102v-102h-102zM205 0v102h102v-102h-102zM205 614v103h102v-103h-102zM205 1229v102h102v-102h-102zM410 0v102h102v-102h-102zM410 614v103h102 v-103h-102zM410 1229v102h102v-102h-102zM614 0v102h103v-102h-103zM614 614v103h103v-103h-103zM614 1229v102h103v-102h-103zM819 205v102h103v-102h-103zM819 410v102h103v-102h-103z" />
<glyph unicode="7" d="M0 1024v102h102v-102h-102zM0 1229v102h102v-102h-102zM205 1229v102h102v-102h-102zM410 0v102h102v-102h-102zM410 205v102h102v-102h-102zM410 410v102h102v-102h-102zM410 1229v102h102v-102h-102zM614 614v103h103v-103h-103zM614 1229v102h103v-102h-103zM819 819 v103h103v-103h-103zM819 1024v102h103v-102h-103zM819 1229v102h103v-102h-103z" />
<glyph unicode="8" d="M0 205v102h102v-102h-102zM0 410v102h102v-102h-102zM0 819v103h102v-103h-102zM0 1024v102h102v-102h-102zM205 0v102h102v-102h-102zM205 614v103h102v-103h-102zM205 1229v102h102v-102h-102zM410 0v102h102v-102h-102zM410 614v103h102v-103h-102zM410 1229v102h102 v-102h-102zM614 0v102h103v-102h-103zM614 614v103h103v-103h-103zM614 1229v102h103v-102h-103zM819 205v102h103v-102h-103zM819 410v102h103v-102h-103zM819 819v103h103v-103h-103zM819 1024v102h103v-102h-103z" />
<glyph unicode="9" d="M0 819v103h102v-103h-102zM0 1024v102h102v-102h-102zM205 0v102h102v-102h-102zM205 614v103h102v-103h-102zM205 1229v102h102v-102h-102zM410 0v102h102v-102h-102zM410 614v103h102v-103h-102zM410 1229v102h102v-102h-102zM614 0v102h103v-102h-103zM614 614v103 h103v-103h-103zM614 1229v102h103v-102h-103zM819 205v102h103v-102h-103zM819 410v102h103v-102h-103zM819 614v103h103v-103h-103zM819 819v103h103v-103h-103zM819 1024v102h103v-102h-103z" />
<glyph unicode=":" horiz-adv-x="409" d="M0 205v102h102v-102h-102zM0 819v103h102v-103h-102z" />
<glyph unicode=";" horiz-adv-x="614" d="M0 0v102h102v-102h-102zM0 819v103h102v-103h-102zM205 -102h102v-103h-102v103z" />
<glyph unicode="&#x3c;" horiz-adv-x="819" d="M0 614v103h102v-103h-102zM205 410v102h102v-102h-102zM205 819v103h102v-103h-102zM410 205v102h102v-102h-102zM410 1024v102h102v-102h-102z" />
<glyph unicode="=" d="M0 410v102h102v-102h-102zM0 819v103h102v-103h-102zM205 410v102h102v-102h-102zM205 819v103h102v-103h-102zM410 410v102h102v-102h-102zM410 819v103h102v-103h-102zM614 410v102h103v-102h-103zM614 819v103h103v-103h-103zM819 410v102h103v-102h-103zM819 819v103 h103v-103h-103z" />
<glyph unicode="&#x3e;" horiz-adv-x="819" d="M0 205v102h102v-102h-102zM0 1024v102h102v-102h-102zM205 410v102h102v-102h-102zM205 819v103h102v-103h-102zM410 614v103h102v-103h-102z" />
<glyph unicode="?" d="M0 1024v102h102v-102h-102zM205 1229v102h102v-102h-102zM410 0v102h102v-102h-102zM410 410v102h102v-102h-102zM410 1229v102h102v-102h-102zM614 614v103h103v-103h-103zM614 1229v102h103v-102h-103zM819 819v103h103v-103h-103zM819 1024v102h103v-102h-103z" />
<glyph unicode="@" d="M0 205v102h102v-102h-102zM0 410v102h102v-102h-102zM0 614v103h102v-103h-102zM0 819v103h102v-103h-102zM0 1024v102h102v-102h-102zM205 0v102h102v-102h-102zM205 1229v102h102v-102h-102zM410 0v102h102v-102h-102zM410 410v102h102v-102h-102zM410 614v103h102 v-103h-102zM410 819v103h102v-103h-102zM410 1229v102h102v-102h-102zM614 0v102h103v-102h-103zM614 410v102h103v-102h-103zM614 819v103h103v-103h-103zM614 1229v102h103v-102h-103zM819 0v102h103v-102h-103zM819 410v102h103v-102h-103zM819 614v103h103v-103h-103z M819 819v103h103v-103h-103zM819 1024v102h103v-102h-103z" />
<glyph unicode="A" d="M0 0v102h102v-102h-102zM0 205v102h102v-102h-102zM0 410v102h102v-102h-102zM0 614v103h102v-103h-102zM0 819v103h102v-103h-102zM0 1024v102h102v-102h-102zM205 614v103h102v-103h-102zM205 1229v102h102v-102h-102zM410 614v103h102v-103h-102zM410 1229v102h102 v-102h-102zM614 614v103h103v-103h-103zM614 1229v102h103v-102h-103zM819 0v102h103v-102h-103zM819 205v102h103v-102h-103zM819 410v102h103v-102h-103zM819 614v103h103v-103h-103zM819 819v103h103v-103h-103zM819 1024v102h103v-102h-103z" />
<glyph unicode="B" d="M0 0v102h102v-102h-102zM0 205v102h102v-102h-102zM0 410v102h102v-102h-102zM0 614v103h102v-103h-102zM0 819v103h102v-103h-102zM0 1024v102h102v-102h-102zM0 1229v102h102v-102h-102zM205 0v102h102v-102h-102zM205 614v103h102v-103h-102zM205 1229v102h102v-102 h-102zM410 0v102h102v-102h-102zM410 614v103h102v-103h-102zM410 1229v102h102v-102h-102zM614 0v102h103v-102h-103zM614 614v103h103v-103h-103zM614 1229v102h103v-102h-103zM819 205v102h103v-102h-103zM819 410v102h103v-102h-103zM819 819v103h103v-103h-103z M819 1024v102h103v-102h-103z" />
<glyph unicode="C" d="M0 205v102h102v-102h-102zM0 410v102h102v-102h-102zM0 614v103h102v-103h-102zM0 819v103h102v-103h-102zM0 1024v102h102v-102h-102zM205 0v102h102v-102h-102zM205 1229v102h102v-102h-102zM410 0v102h102v-102h-102zM410 1229v102h102v-102h-102zM614 0v102h103v-102 h-103zM614 1229v102h103v-102h-103zM819 205v102h103v-102h-103zM819 1024v102h103v-102h-103z" />
<glyph unicode="D" d="M0 0v102h102v-102h-102zM0 205v102h102v-102h-102zM0 410v102h102v-102h-102zM0 614v103h102v-103h-102zM0 819v103h102v-103h-102zM0 1024v102h102v-102h-102zM0 1229v102h102v-102h-102zM205 0v102h102v-102h-102zM205 1229v102h102v-102h-102zM410 0v102h102v-102 h-102zM410 1229v102h102v-102h-102zM614 0v102h103v-102h-103zM614 1229v102h103v-102h-103zM819 205v102h103v-102h-103zM819 410v102h103v-102h-103zM819 614v103h103v-103h-103zM819 819v103h103v-103h-103zM819 1024v102h103v-102h-103z" />
<glyph unicode="E" d="M0 0v102h102v-102h-102zM0 205v102h102v-102h-102zM0 410v102h102v-102h-102zM0 614v103h102v-103h-102zM0 819v103h102v-103h-102zM0 1024v102h102v-102h-102zM0 1229v102h102v-102h-102zM205 0v102h102v-102h-102zM205 614v103h102v-103h-102zM205 1229v102h102v-102 h-102zM410 0v102h102v-102h-102zM410 614v103h102v-103h-102zM410 1229v102h102v-102h-102zM614 0v102h103v-102h-103zM614 614v103h103v-103h-103zM614 1229v102h103v-102h-103zM819 0v102h103v-102h-103zM819 1229v102h103v-102h-103z" />
<glyph unicode="F" d="M0 0v102h102v-102h-102zM0 205v102h102v-102h-102zM0 410v102h102v-102h-102zM0 614v103h102v-103h-102zM0 819v103h102v-103h-102zM0 1024v102h102v-102h-102zM0 1229v102h102v-102h-102zM205 614v103h102v-103h-102zM205 1229v102h102v-102h-102zM410 614v103h102v-103 h-102zM410 1229v102h102v-102h-102zM614 614v103h103v-103h-103zM614 1229v102h103v-102h-103zM819 1229v102h103v-102h-103z" />
<glyph unicode="G" d="M0 205v102h102v-102h-102zM0 410v102h102v-102h-102zM0 614v103h102v-103h-102zM0 819v103h102v-103h-102zM0 1024v102h102v-102h-102zM205 0v102h102v-102h-102zM205 1229v102h102v-102h-102zM410 0v102h102v-102h-102zM410 512v102h102v-102h-102zM410 1229v102h102 v-102h-102zM614 0v102h103v-102h-103zM614 512v102h103v-102h-103zM614 1229v102h103v-102h-103zM819 205v102h103v-102h-103zM819 512v102h103v-102h-103zM819 1024v102h103v-102h-103z" />
<glyph unicode="H" d="M0 0v102h102v-102h-102zM0 205v102h102v-102h-102zM0 410v102h102v-102h-102zM0 614v103h102v-103h-102zM0 819v103h102v-103h-102zM0 1024v102h102v-102h-102zM0 1229v102h102v-102h-102zM205 614v103h102v-103h-102zM410 614v103h102v-103h-102zM614 614v103h103v-103 h-103zM819 0v102h103v-102h-103zM819 205v102h103v-102h-103zM819 410v102h103v-102h-103zM819 614v103h103v-103h-103zM819 819v103h103v-103h-103zM819 1024v102h103v-102h-103zM819 1229v102h103v-102h-103z" />
<glyph unicode="I" d="M0 0v102h102v-102h-102zM0 1229v102h102v-102h-102zM205 0v102h102v-102h-102zM205 1229v102h102v-102h-102zM410 0v102h102v-102h-102zM410 205v102h102v-102h-102zM410 410v102h102v-102h-102zM410 614v103h102v-103h-102zM410 819v103h102v-103h-102zM410 1024v102 h102v-102h-102zM410 1229v102h102v-102h-102zM614 0v102h103v-102h-103zM614 1229v102h103v-102h-103zM819 0v102h103v-102h-103zM819 1229v102h103v-102h-103z" />
<glyph unicode="J" d="M0 205v102h102v-102h-102zM0 512v102h102v-102h-102zM0 1229v102h102v-102h-102zM205 0v102h102v-102h-102zM205 1229v102h102v-102h-102zM410 0v102h102v-102h-102zM410 1229v102h102v-102h-102zM614 0v102h103v-102h-103zM614 1229v102h103v-102h-103zM819 205v102h103 v-102h-103zM819 410v102h103v-102h-103zM819 614v103h103v-103h-103zM819 819v103h103v-103h-103zM819 1024v102h103v-102h-103zM819 1229v102h103v-102h-103z" />
<glyph unicode="K" d="M0 0v102h102v-102h-102zM0 205v102h102v-102h-102zM0 410v102h102v-102h-102zM0 614v103h102v-103h-102zM0 819v103h102v-103h-102zM0 1024v102h102v-102h-102zM0 1229v102h102v-102h-102zM205 614v103h102v-103h-102zM410 410v102h102v-102h-102zM410 819v103h102v-103 h-102zM614 205v102h103v-102h-103zM614 1024v102h103v-102h-103zM819 0v102h103v-102h-103zM819 1229v102h103v-102h-103z" />
<glyph unicode="L" d="M0 0v102h102v-102h-102zM0 205v102h102v-102h-102zM0 410v102h102v-102h-102zM0 614v103h102v-103h-102zM0 819v103h102v-103h-102zM0 1024v102h102v-102h-102zM0 1229v102h102v-102h-102zM205 0v102h102v-102h-102zM410 0v102h102v-102h-102zM614 0v102h103v-102h-103z M819 0v102h103v-102h-103z" />
<glyph unicode="M" d="M0 0v102h102v-102h-102zM0 205v102h102v-102h-102zM0 410v102h102v-102h-102zM0 614v103h102v-103h-102zM0 819v103h102v-103h-102zM0 1024v102h102v-102h-102zM0 1229v102h102v-102h-102zM205 819v103h102v-103h-102zM410 410v102h102v-102h-102zM410 614v103h102v-103 h-102zM614 819v103h103v-103h-103zM819 0v102h103v-102h-103zM819 205v102h103v-102h-103zM819 410v102h103v-102h-103zM819 614v103h103v-103h-103zM819 819v103h103v-103h-103zM819 1024v102h103v-102h-103zM819 1229v102h103v-102h-103z" />
<glyph unicode="N" d="M0 0v102h102v-102h-102zM0 205v102h102v-102h-102zM0 410v102h102v-102h-102zM0 614v103h102v-103h-102zM0 819v103h102v-103h-102zM0 1024v102h102v-102h-102zM0 1229v102h102v-102h-102zM205 819v103h102v-103h-102zM410 614v103h102v-103h-102zM614 410v102h103v-102 h-103zM819 0v102h103v-102h-103zM819 205v102h103v-102h-103zM819 410v102h103v-102h-103zM819 614v103h103v-103h-103zM819 819v103h103v-103h-103zM819 1024v102h103v-102h-103zM819 1229v102h103v-102h-103z" />
<glyph unicode="O" d="M0 205v102h102v-102h-102zM0 410v102h102v-102h-102zM0 614v103h102v-103h-102zM0 819v103h102v-103h-102zM0 1024v102h102v-102h-102zM205 0v102h102v-102h-102zM205 1229v102h102v-102h-102zM410 0v102h102v-102h-102zM410 1229v102h102v-102h-102zM614 0v102h103v-102 h-103zM614 1229v102h103v-102h-103zM819 205v102h103v-102h-103zM819 410v102h103v-102h-103zM819 614v103h103v-103h-103zM819 819v103h103v-103h-103zM819 1024v102h103v-102h-103z" />
<glyph unicode="P" d="M0 0v102h102v-102h-102zM0 205v102h102v-102h-102zM0 410v102h102v-102h-102zM0 614v103h102v-103h-102zM0 819v103h102v-103h-102zM0 1024v102h102v-102h-102zM0 1229v102h102v-102h-102zM205 614v103h102v-103h-102zM205 1229v102h102v-102h-102zM410 614v103h102v-103 h-102zM410 1229v102h102v-102h-102zM614 614v103h103v-103h-103zM614 1229v102h103v-102h-103zM819 819v103h103v-103h-103zM819 1024v102h103v-102h-103z" />
<glyph unicode="Q" d="M0 205v102h102v-102h-102zM0 410v102h102v-102h-102zM0 614v103h102v-103h-102zM0 819v103h102v-103h-102zM0 1024v102h102v-102h-102zM205 0v102h102v-102h-102zM205 1229v102h102v-102h-102zM410 0v102h102v-102h-102zM410 1229v102h102v-102h-102zM614 0v102h103v-102 h-103zM614 205v102h103v-102h-103zM614 1229v102h103v-102h-103zM819 0v102h103v-102h-103zM819 205v102h103v-102h-103zM819 410v102h103v-102h-103zM819 614v103h103v-103h-103zM819 819v103h103v-103h-103zM819 1024v102h103v-102h-103z" />
<glyph unicode="R" d="M0 0v102h102v-102h-102zM0 205v102h102v-102h-102zM0 410v102h102v-102h-102zM0 614v103h102v-103h-102zM0 819v103h102v-103h-102zM0 1024v102h102v-102h-102zM0 1229v102h102v-102h-102zM205 614v103h102v-103h-102zM205 1229v102h102v-102h-102zM410 410v102h102v-102 h-102zM410 614v103h102v-103h-102zM410 1229v102h102v-102h-102zM614 205v102h103v-102h-103zM614 614v103h103v-103h-103zM614 1229v102h103v-102h-103zM819 0v102h103v-102h-103zM819 819v103h103v-103h-103zM819 1024v102h103v-102h-103z" />
<glyph unicode="S" d="M0 205v102h102v-102h-102zM0 819v103h102v-103h-102zM0 1024v102h102v-102h-102zM205 0v102h102v-102h-102zM205 614v103h102v-103h-102zM205 1229v102h102v-102h-102zM410 0v102h102v-102h-102zM410 614v103h102v-103h-102zM410 1229v102h102v-102h-102zM614 0v102h103 v-102h-103zM614 614v103h103v-103h-103zM614 1229v102h103v-102h-103zM819 205v102h103v-102h-103zM819 410v102h103v-102h-103zM819 1024v102h103v-102h-103z" />
<glyph unicode="T" d="M0 1229v102h102v-102h-102zM205 1229v102h102v-102h-102zM410 0v102h102v-102h-102zM410 205v102h102v-102h-102zM410 410v102h102v-102h-102zM410 614v103h102v-103h-102zM410 819v103h102v-103h-102zM410 1024v102h102v-102h-102zM410 1229v102h102v-102h-102z M614 1229v102h103v-102h-103zM819 1229v102h103v-102h-103z" />
<glyph unicode="U" d="M0 205v102h102v-102h-102zM0 410v102h102v-102h-102zM0 614v103h102v-103h-102zM0 819v103h102v-103h-102zM0 1024v102h102v-102h-102zM0 1229v102h102v-102h-102zM205 0v102h102v-102h-102zM410 0v102h102v-102h-102zM614 0v102h103v-102h-103zM819 205v102h103v-102 h-103zM819 410v102h103v-102h-103zM819 614v103h103v-103h-103zM819 819v103h103v-103h-103zM819 1024v102h103v-102h-103zM819 1229v102h103v-102h-103z" />
<glyph unicode="V" d="M0 410v102h102v-102h-102zM0 614v103h102v-103h-102zM0 819v103h102v-103h-102zM0 1024v102h102v-102h-102zM0 1229v102h102v-102h-102zM205 205v102h102v-102h-102zM410 0v102h102v-102h-102zM614 205v102h103v-102h-103zM819 410v102h103v-102h-103zM819 614v103h103 v-103h-103zM819 819v103h103v-103h-103zM819 1024v102h103v-102h-103zM819 1229v102h103v-102h-103z" />
<glyph unicode="W" horiz-adv-x="1636" d="M0 205v102h102v-102h-102zM0 410v102h102v-102h-102zM0 614v103h102v-103h-102zM0 819v103h102v-103h-102zM0 1024v102h102v-102h-102zM0 1229v102h102v-102h-102zM205 0v102h102v-102h-102zM410 0v102h102v-102h-102zM614 205v102h103v-102h-103zM614 410v102h103v-102 h-103zM614 614v103h103v-103h-103zM614 819v103h103v-103h-103zM819 0v102h103v-102h-103zM1024 0v102h102v-102h-102zM1229 205v102h102v-102h-102zM1229 410v102h102v-102h-102zM1229 614v103h102v-103h-102zM1229 819v103h102v-103h-102zM1229 1024v102h102v-102h-102z M1229 1229v102h102v-102h-102z" />
<glyph unicode="X" d="M0 0v102h102v-102h-102zM0 1229v102h102v-102h-102zM205 205v102h102v-102h-102zM205 1024v102h102v-102h-102zM410 410v102h102v-102h-102zM410 614v103h102v-103h-102zM410 819v103h102v-103h-102zM614 205v102h103v-102h-103zM614 1024v102h103v-102h-103zM819 0v102 h103v-102h-103zM819 1229v102h103v-102h-103z" />
<glyph unicode="Y" d="M0 1229v102h102v-102h-102zM205 1024v102h102v-102h-102zM410 0v102h102v-102h-102zM410 205v102h102v-102h-102zM410 410v102h102v-102h-102zM410 614v103h102v-103h-102zM410 819v103h102v-103h-102zM614 1024v102h103v-102h-103zM819 1229v102h103v-102h-103z" />
<glyph unicode="Z" d="M0 0v102h102v-102h-102zM0 205v102h102v-102h-102zM0 1229v102h102v-102h-102zM205 0v102h102v-102h-102zM205 410v102h102v-102h-102zM205 1229v102h102v-102h-102zM410 0v102h102v-102h-102zM410 614v103h102v-103h-102zM410 1229v102h102v-102h-102zM614 0v102h103 v-102h-103zM614 819v103h103v-103h-103zM614 1229v102h103v-102h-103zM819 0v102h103v-102h-103zM819 1024v102h103v-102h-103zM819 1229v102h103v-102h-103z" />
<glyph unicode="[" horiz-adv-x="819" d="M0 0v102h102v-102h-102zM0 205v102h102v-102h-102zM0 410v102h102v-102h-102zM0 614v103h102v-103h-102zM0 819v103h102v-103h-102zM0 1024v102h102v-102h-102zM0 1229v102h102v-102h-102zM205 0v102h102v-102h-102zM205 1229v102h102v-102h-102zM410 0v102h102v-102 h-102zM410 1229v102h102v-102h-102z" />
<glyph unicode="\" horiz-adv-x="1433" d="M0 1024v102h102v-102h-102zM205 819v103h102v-103h-102zM410 614v103h102v-103h-102zM614 410v102h103v-102h-103zM819 205v102h103v-102h-103zM1024 0v102h102v-102h-102z" />
<glyph unicode="]" horiz-adv-x="819" d="M0 0v102h102v-102h-102zM0 1229v102h102v-102h-102zM205 0v102h102v-102h-102zM205 1229v102h102v-102h-102zM410 0v102h102v-102h-102zM410 205v102h102v-102h-102zM410 410v102h102v-102h-102zM410 614v103h102v-103h-102zM410 819v103h102v-103h-102zM410 1024v102 h102v-102h-102zM410 1229v102h102v-102h-102z" />
<glyph unicode="^" d="M0 819v103h102v-103h-102zM205 1024v102h102v-102h-102zM410 1229v102h102v-102h-102zM614 1024v102h103v-102h-103zM819 819v103h103v-103h-103z" />
<glyph unicode="_" d="M0 0v102h102v-102h-102zM205 0v102h102v-102h-102zM410 0v102h102v-102h-102zM614 0v102h103v-102h-103zM819 0v102h103v-102h-103z" />
<glyph unicode="`" horiz-adv-x="819" d="M0 1229v102h102v-102h-102zM205 1024v102h102v-102h-102zM410 819v103h102v-103h-102z" />
<glyph unicode="a" horiz-adv-x="1024" d="M0 205v102h102v-102h-102zM0 410v102h102v-102h-102zM0 614v103h102v-103h-102zM205 0v102h102v-102h-102zM205 819v103h102v-103h-102zM410 0v102h102v-102h-102zM410 819v103h102v-103h-102zM614 0v102h103v-102h-103zM614 205v102h103v-102h-103zM614 410v102h103 v-102h-103zM614 614v103h103v-103h-103zM614 819v103h103v-103h-103z" />
<glyph unicode="b" horiz-adv-x="1024" d="M0 0v102h102v-102h-102zM0 205v102h102v-102h-102zM0 410v102h102v-102h-102zM0 614v103h102v-103h-102zM0 819v103h102v-103h-102zM0 1024v102h102v-102h-102zM0 1229v102h102v-102h-102zM205 0v102h102v-102h-102zM205 819v103h102v-103h-102zM410 0v102h102v-102h-102 zM410 819v103h102v-103h-102zM614 205v102h103v-102h-103zM614 410v102h103v-102h-103zM614 614v103h103v-103h-103z" />
<glyph unicode="c" horiz-adv-x="1024" d="M0 205v102h102v-102h-102zM0 410v102h102v-102h-102zM0 614v103h102v-103h-102zM205 0v102h102v-102h-102zM205 819v103h102v-103h-102zM410 0v102h102v-102h-102zM410 819v103h102v-103h-102zM614 0v102h103v-102h-103zM614 819v103h103v-103h-103z" />
<glyph unicode="d" horiz-adv-x="1024" d="M0 205v102h102v-102h-102zM0 410v102h102v-102h-102zM0 614v103h102v-103h-102zM205 0v102h102v-102h-102zM205 819v103h102v-103h-102zM410 0v102h102v-102h-102zM410 819v103h102v-103h-102zM614 0v102h103v-102h-103zM614 205v102h103v-102h-103zM614 410v102h103 v-102h-103zM614 614v103h103v-103h-103zM614 819v103h103v-103h-103zM614 1024v102h103v-102h-103zM614 1229v102h103v-102h-103z" />
<glyph unicode="e" horiz-adv-x="1024" d="M0 205v102h102v-102h-102zM0 410v102h102v-102h-102zM0 614v103h102v-103h-102zM205 0v102h102v-102h-102zM205 410v102h102v-102h-102zM205 819v103h102v-103h-102zM410 0v102h102v-102h-102zM410 410v102h102v-102h-102zM410 819v103h102v-103h-102zM614 0v102h103 v-102h-103zM614 410v102h103v-102h-103zM614 614v103h103v-103h-103z" />
<glyph unicode="f" horiz-adv-x="1024" d="M0 819v103h102v-103h-102zM205 0v102h102v-102h-102zM205 205v102h102v-102h-102zM205 410v102h102v-102h-102zM205 614v103h102v-103h-102zM205 819v103h102v-103h-102zM205 1024v102h102v-102h-102zM410 819v103h102v-103h-102zM410 1229v102h102v-102h-102zM614 1229 v102h103v-102h-103z" />
<glyph unicode="g" horiz-adv-x="1024" d="M0 205v102h102v-102h-102zM0 410v102h102v-102h-102zM0 614v103h102v-103h-102zM205 0v102h102v-102h-102zM205 -307h102v-103h-102v103zM205 819v103h102v-103h-102zM410 0v102h102v-102h-102zM410 -307h102v-103h-102v103zM410 819v103h102v-103h-102zM614 0v102h103 v-102h-103zM614 -102h103v-103h-103v103zM614 205v102h103v-102h-103zM614 410v102h103v-102h-103zM614 614v103h103v-103h-103zM614 819v103h103v-103h-103z" />
<glyph unicode="h" horiz-adv-x="1024" d="M0 0v102h102v-102h-102zM0 205v102h102v-102h-102zM0 410v102h102v-102h-102zM0 614v103h102v-103h-102zM0 819v103h102v-103h-102zM0 1024v102h102v-102h-102zM0 1229v102h102v-102h-102zM205 819v103h102v-103h-102zM410 819v103h102v-103h-102zM614 0v102h103v-102 h-103zM614 205v102h103v-102h-103zM614 410v102h103v-102h-103zM614 614v103h103v-103h-103z" />
<glyph unicode="i" horiz-adv-x="819" d="M0 0v102h102v-102h-102zM0 819v103h102v-103h-102zM205 0v102h102v-102h-102zM205 205v102h102v-102h-102zM205 410v102h102v-102h-102zM205 614v103h102v-103h-102zM205 819v103h102v-103h-102zM205 1229v102h102v-102h-102zM410 0v102h102v-102h-102z" />
<glyph unicode="j" horiz-adv-x="817" d="M0 -307h102v-103h-102v103zM0 819v103h102v-103h-102zM205 -307h102v-103h-102v103zM205 819v103h102v-103h-102zM205 1229v102h102v-102h-102zM410 0v102h102v-102h-102zM410 -102h102v-103h-102v103zM410 205v102h102v-102h-102zM410 410v102h102v-102h-102zM410 614 v103h102v-103h-102zM410 819v103h102v-103h-102z" />
<glyph unicode="k" horiz-adv-x="1024" d="M0 0v102h102v-102h-102zM0 205v102h102v-102h-102zM0 410v102h102v-102h-102zM0 614v103h102v-103h-102zM0 819v103h102v-103h-102zM0 1024v102h102v-102h-102zM0 1229v102h102v-102h-102zM205 410v102h102v-102h-102zM410 205v102h102v-102h-102zM410 614v103h102v-103 h-102zM614 0v102h103v-102h-103zM614 819v103h103v-103h-103z" />
<glyph unicode="l" horiz-adv-x="819" d="M0 0v102h102v-102h-102zM0 1229v102h102v-102h-102zM205 0v102h102v-102h-102zM205 205v102h102v-102h-102zM205 410v102h102v-102h-102zM205 614v103h102v-103h-102zM205 819v103h102v-103h-102zM205 1024v102h102v-102h-102zM205 1229v102h102v-102h-102zM410 0v102 h102v-102h-102z" />
<glyph unicode="m" d="M0 0v102h102v-102h-102zM0 205v102h102v-102h-102zM0 410v102h102v-102h-102zM0 614v103h102v-103h-102zM0 819v103h102v-103h-102zM205 819v103h102v-103h-102zM410 0v102h102v-102h-102zM410 205v102h102v-102h-102zM410 410v102h102v-102h-102zM410 614v103h102v-103 h-102zM410 819v103h102v-103h-102zM614 819v103h103v-103h-103zM819 0v102h103v-102h-103zM819 205v102h103v-102h-103zM819 410v102h103v-102h-103zM819 614v103h103v-103h-103z" />
<glyph unicode="n" horiz-adv-x="1024" d="M0 0v102h102v-102h-102zM0 205v102h102v-102h-102zM0 410v102h102v-102h-102zM0 614v103h102v-103h-102zM0 819v103h102v-103h-102zM205 819v103h102v-103h-102zM410 819v103h102v-103h-102zM614 0v102h103v-102h-103zM614 205v102h103v-102h-103zM614 410v102h103v-102 h-103zM614 614v103h103v-103h-103z" />
<glyph unicode="o" horiz-adv-x="1024" d="M0 205v102h102v-102h-102zM0 410v102h102v-102h-102zM0 614v103h102v-103h-102zM205 0v102h102v-102h-102zM205 819v103h102v-103h-102zM410 0v102h102v-102h-102zM410 819v103h102v-103h-102zM614 205v102h103v-102h-103zM614 410v102h103v-102h-103zM614 614v103h103 v-103h-103z" />
<glyph unicode="p" horiz-adv-x="1024" d="M0 0v102h102v-102h-102zM0 -102h102v-103h-102v103zM0 205v102h102v-102h-102zM0 -307h102v-103h-102v103zM0 410v102h102v-102h-102zM0 614v103h102v-103h-102zM0 819v103h102v-103h-102zM205 0v102h102v-102h-102zM205 819v103h102v-103h-102zM410 0v102h102v-102h-102 zM410 819v103h102v-103h-102zM614 205v102h103v-102h-103zM614 410v102h103v-102h-103zM614 614v103h103v-103h-103z" />
<glyph unicode="q" horiz-adv-x="1024" d="M0 205v102h102v-102h-102zM0 410v102h102v-102h-102zM0 614v103h102v-103h-102zM205 0v102h102v-102h-102zM205 819v103h102v-103h-102zM410 0v102h102v-102h-102zM410 819v103h102v-103h-102zM614 0v102h103v-102h-103zM614 -102h103v-103h-103v103zM614 205v102h103 v-102h-103zM614 -307h103v-103h-103v103zM614 410v102h103v-102h-103zM614 614v103h103v-103h-103zM614 819v103h103v-103h-103z" />
<glyph unicode="r" horiz-adv-x="1024" d="M0 0v102h102v-102h-102zM0 205v102h102v-102h-102zM0 410v102h102v-102h-102zM0 614v103h102v-103h-102zM0 819v103h102v-103h-102zM205 819v103h102v-103h-102zM410 819v103h102v-103h-102zM614 614v103h103v-103h-103z" />
<glyph unicode="s" horiz-adv-x="1024" d="M0 0v102h102v-102h-102zM0 614v103h102v-103h-102zM205 0v102h102v-102h-102zM205 410v102h102v-102h-102zM205 819v103h102v-103h-102zM410 0v102h102v-102h-102zM410 410v102h102v-102h-102zM410 819v103h102v-103h-102zM614 205v102h103v-102h-103zM614 819v103h103 v-103h-103z" />
<glyph unicode="t" horiz-adv-x="1024" d="M0 819v103h102v-103h-102zM205 205v102h102v-102h-102zM205 410v102h102v-102h-102zM205 614v103h102v-103h-102zM205 819v103h102v-103h-102zM205 1024v102h102v-102h-102zM205 1229v102h102v-102h-102zM410 0v102h102v-102h-102zM410 819v103h102v-103h-102zM614 0v102 h103v-102h-103z" />
<glyph unicode="u" horiz-adv-x="1024" d="M0 205v102h102v-102h-102zM0 410v102h102v-102h-102zM0 614v103h102v-103h-102zM0 819v103h102v-103h-102zM205 0v102h102v-102h-102zM410 0v102h102v-102h-102zM614 205v102h103v-102h-103zM614 410v102h103v-102h-103zM614 614v103h103v-103h-103zM614 819v103h103 v-103h-103z" />
<glyph unicode="v" horiz-adv-x="1024" d="M0 410v102h102v-102h-102zM0 614v103h102v-103h-102zM0 819v103h102v-103h-102zM205 0v102h102v-102h-102zM205 205v102h102v-102h-102zM410 0v102h102v-102h-102zM410 205v102h102v-102h-102zM614 410v102h103v-102h-103zM614 614v103h103v-103h-103zM614 819v103h103 v-103h-103z" />
<glyph unicode="w" d="M0 205v102h102v-102h-102zM0 410v102h102v-102h-102zM0 614v103h102v-103h-102zM0 819v103h102v-103h-102zM205 0v102h102v-102h-102zM410 205v102h102v-102h-102zM410 410v102h102v-102h-102zM410 614v103h102v-103h-102zM614 0v102h103v-102h-103zM819 205v102h103 v-102h-103zM819 410v102h103v-102h-103zM819 614v103h103v-103h-103zM819 819v103h103v-103h-103z" />
<glyph unicode="x" horiz-adv-x="1024" d="M0 0v102h102v-102h-102zM0 205v102h102v-102h-102zM0 614v103h102v-103h-102zM0 819v103h102v-103h-102zM205 410v102h102v-102h-102zM410 410v102h102v-102h-102zM614 0v102h103v-102h-103zM614 205v102h103v-102h-103zM614 614v103h103v-103h-103zM614 819v103h103 v-103h-103z" />
<glyph unicode="y" horiz-adv-x="1024" d="M0 205v102h102v-102h-102zM0 410v102h102v-102h-102zM0 614v103h102v-103h-102zM0 819v103h102v-103h-102zM205 0v102h102v-102h-102zM205 -307h102v-103h-102v103zM410 0v102h102v-102h-102zM410 -307h102v-103h-102v103zM614 0v102h103v-102h-103zM614 -102h103v-103 h-103v103zM614 205v102h103v-102h-103zM614 410v102h103v-102h-103zM614 614v103h103v-103h-103zM614 819v103h103v-103h-103z" />
<glyph unicode="z" horiz-adv-x="1024" d="M0 0v102h102v-102h-102zM0 205v102h102v-102h-102zM0 819v103h102v-103h-102zM205 0v102h102v-102h-102zM205 410v102h102v-102h-102zM205 819v103h102v-103h-102zM410 0v102h102v-102h-102zM410 410v102h102v-102h-102zM410 819v103h102v-103h-102zM614 0v102h103v-102 h-103zM614 614v103h103v-103h-103zM614 819v103h103v-103h-103z" />
<glyph unicode="{" horiz-adv-x="1024" d="M0 614v103h102v-103h-102zM205 0v102h102v-102h-102zM205 205v102h102v-102h-102zM205 410v102h102v-102h-102zM205 614v103h102v-103h-102zM205 819v103h102v-103h-102zM205 1024v102h102v-102h-102zM205 1229v102h102v-102h-102zM410 0v102h102v-102h-102zM410 1229 v102h102v-102h-102zM614 0v102h103v-102h-103zM614 1229v102h103v-102h-103z" />
<glyph unicode="|" horiz-adv-x="409" d="M0 0v102h102v-102h-102zM0 205v102h102v-102h-102zM0 410v102h102v-102h-102zM0 614v103h102v-103h-102zM0 819v103h102v-103h-102zM0 1024v102h102v-102h-102zM0 1229v102h102v-102h-102z" />
<glyph unicode="}" horiz-adv-x="1024" d="M0 0v102h102v-102h-102zM0 1229v102h102v-102h-102zM205 0v102h102v-102h-102zM205 1229v102h102v-102h-102zM410 0v102h102v-102h-102zM410 205v102h102v-102h-102zM410 410v102h102v-102h-102zM410 614v103h102v-103h-102zM410 819v103h102v-103h-102zM410 1024v102 h102v-102h-102zM410 1229v102h102v-102h-102zM614 614v103h103v-103h-103z" />
<glyph unicode="~" horiz-adv-x="1024" d="M0 614v103h102v-103h-102zM205 819v103h102v-103h-102zM410 614v103h102v-103h-102zM614 819v103h103v-103h-103z" />
<glyph unicode="&#xa0;" />
<glyph unicode="&#xa1;" horiz-adv-x="409" d="M0 0v102h102v-102h-102zM0 205v102h102v-102h-102zM0 410v102h102v-102h-102zM0 614v103h102v-103h-102zM0 819v103h102v-103h-102zM0 1229v102h102v-102h-102z" />
<glyph unicode="&#xa2;" d="M0 205v102h102v-102h-102zM0 410v102h102v-102h-102zM0 614v103h102v-103h-102zM205 0v102h102v-102h-102zM205 819v103h102v-103h-102zM410 0v102h102v-102h-102zM410 -102h102v-103h-102v103zM410 205v102h102v-102h-102zM410 410v102h102v-102h-102zM410 614v103h102 v-103h-102zM410 819v103h102v-103h-102zM410 1024v102h102v-102h-102zM614 0v102h103v-102h-103zM614 819v103h103v-103h-103zM819 0v102h103v-102h-103zM819 819v103h103v-103h-103z" />
<glyph unicode="&#xa3;" horiz-adv-x="1024" d="M0 0v102h102v-102h-102zM0 819v103h102v-103h-102zM205 0v102h102v-102h-102zM205 205v102h102v-102h-102zM205 410v102h102v-102h-102zM205 614v103h102v-103h-102zM205 819v103h102v-103h-102zM205 1024v102h102v-102h-102zM410 0v102h102v-102h-102zM410 819v103h102 v-103h-102zM410 1229v102h102v-102h-102zM614 0v102h103v-102h-103zM614 1229v102h103v-102h-103z" />
<glyph unicode="&#xa4;" horiz-adv-x="1024" d="M0 410v102h102v-102h-102zM0 1024v102h102v-102h-102zM205 614v103h102v-103h-102zM205 819v103h102v-103h-102zM410 614v103h102v-103h-102zM410 819v103h102v-103h-102zM614 410v102h103v-102h-103zM614 1024v102h103v-102h-103z" />
<glyph unicode="&#xa5;" d="M0 205v102h102v-102h-102zM0 614v103h102v-103h-102zM0 1229v102h102v-102h-102zM205 205v102h102v-102h-102zM205 614v103h102v-103h-102zM205 1024v102h102v-102h-102zM410 0v102h102v-102h-102zM410 205v102h102v-102h-102zM410 410v102h102v-102h-102zM410 614v103 h102v-103h-102zM410 819v103h102v-103h-102zM614 205v102h103v-102h-103zM614 614v103h103v-103h-103zM614 1024v102h103v-102h-103zM819 205v102h103v-102h-103zM819 614v103h103v-103h-103zM819 1229v102h103v-102h-103z" />
<glyph unicode="&#xa6;" horiz-adv-x="409" d="M0 0v102h102v-102h-102zM0 205v102h102v-102h-102zM0 410v102h102v-102h-102zM0 819v103h102v-103h-102zM0 1024v102h102v-102h-102zM0 1229v102h102v-102h-102z" />
<glyph unicode="&#xa7;" horiz-adv-x="1024" d="M0 0v102h102v-102h-102zM0 614v103h102v-103h-102zM0 819v103h102v-103h-102zM0 1024v102h102v-102h-102zM205 0v102h102v-102h-102zM205 410v102h102v-102h-102zM205 819v103h102v-103h-102zM205 1229v102h102v-102h-102zM410 0v102h102v-102h-102zM410 410v102h102 v-102h-102zM410 819v103h102v-103h-102zM410 1229v102h102v-102h-102zM614 205v102h103v-102h-103zM614 410v102h103v-102h-103zM614 614v103h103v-103h-103zM614 1229v102h103v-102h-103z" />
<glyph unicode="&#xa8;" horiz-adv-x="614" d="M0 1229v102h102v-102h-102zM205 1229v102h102v-102h-102z" />
<glyph unicode="&#xa9;" horiz-adv-x="1638" d="M0 205v102h102v-102h-102zM0 410v102h102v-102h-102zM0 614v103h102v-103h-102zM0 819v103h102v-103h-102zM0 1024v102h102v-102h-102zM0 1229v102h102v-102h-102zM205 0v102h102v-102h-102zM205 1434v102h102v-102h-102zM410 0v102h102v-102h-102zM410 614v103h102v-103 h-102zM410 819v103h102v-103h-102zM410 1434v102h102v-102h-102zM614 0v102h103v-102h-103zM614 410v102h103v-102h-103zM614 1024v102h103v-102h-103zM614 1434v102h103v-102h-103zM819 0v102h103v-102h-103zM819 410v102h103v-102h-103zM819 1024v102h103v-102h-103z M819 1434v102h103v-102h-103zM1024 0v102h102v-102h-102zM1024 1434v102h102v-102h-102zM1229 205v102h102v-102h-102zM1229 410v102h102v-102h-102zM1229 614v103h102v-103h-102zM1229 819v103h102v-103h-102zM1229 1024v102h102v-102h-102zM1229 1229v102h102v-102h-102z " />
<glyph unicode="&#xaa;" horiz-adv-x="1024" d="M0 614v103h102v-103h-102zM205 410v102h102v-102h-102zM205 819v103h102v-103h-102zM205 1229v102h102v-102h-102zM410 410v102h102v-102h-102zM410 819v103h102v-103h-102zM410 1229v102h102v-102h-102zM614 410v102h103v-102h-103zM614 614v103h103v-103h-103zM614 819 v103h103v-103h-103zM614 1024v102h103v-102h-103z" />
<glyph unicode="&#xab;" d="M0 614v103h102v-103h-102zM205 410v102h102v-102h-102zM205 819v103h102v-103h-102zM410 205v102h102v-102h-102zM410 614v103h102v-103h-102zM410 1024v102h102v-102h-102zM614 410v102h103v-102h-103zM614 819v103h103v-103h-103zM819 205v102h103v-102h-103zM819 1024 v102h103v-102h-103z" />
<glyph unicode="&#xac;" d="M0 1229v102h102v-102h-102zM205 1229v102h102v-102h-102zM410 1229v102h102v-102h-102zM614 1229v102h103v-102h-103zM819 1024v102h103v-102h-103zM819 1229v102h103v-102h-103z" />
<glyph unicode="&#xad;" horiz-adv-x="1024" d="M0 614v103h102v-103h-102zM205 614v103h102v-103h-102zM410 614v103h102v-103h-102zM614 614v103h103v-103h-103z" />
<glyph unicode="&#xae;" horiz-adv-x="1638" d="M0 205v102h102v-102h-102zM0 410v102h102v-102h-102zM0 614v103h102v-103h-102zM0 819v103h102v-103h-102zM0 1024v102h102v-102h-102zM0 1229v102h102v-102h-102zM205 0v102h102v-102h-102zM205 1434v102h102v-102h-102zM410 0v102h102v-102h-102zM410 410v102h102v-102 h-102zM410 614v103h102v-103h-102zM410 819v103h102v-103h-102zM410 1024v102h102v-102h-102zM410 1434v102h102v-102h-102zM614 0v102h103v-102h-103zM614 614v103h103v-103h-103zM614 1024v102h103v-102h-103zM614 1434v102h103v-102h-103zM819 0v102h103v-102h-103z M819 410v102h103v-102h-103zM819 819v103h103v-103h-103zM819 1434v102h103v-102h-103zM1024 0v102h102v-102h-102zM1024 1434v102h102v-102h-102zM1229 205v102h102v-102h-102zM1229 410v102h102v-102h-102zM1229 614v103h102v-103h-102zM1229 819v103h102v-103h-102z M1229 1024v102h102v-102h-102zM1229 1229v102h102v-102h-102z" />
<glyph unicode="&#xb0;" horiz-adv-x="1024" d="M0 819v103h102v-103h-102zM0 1024v102h102v-102h-102zM205 614v103h102v-103h-102zM205 1229v102h102v-102h-102zM410 614v103h102v-103h-102zM410 1229v102h102v-102h-102zM614 819v103h103v-103h-103zM614 1024v102h103v-102h-103z" />
<glyph unicode="&#xb1;" d="M0 0v102h102v-102h-102zM0 819v103h102v-103h-102zM205 0v102h102v-102h-102zM205 819v103h102v-103h-102zM410 0v102h102v-102h-102zM410 410v102h102v-102h-102zM410 614v103h102v-103h-102zM410 819v103h102v-103h-102zM410 1024v102h102v-102h-102zM410 1229v102h102 v-102h-102zM614 0v102h103v-102h-103zM614 819v103h103v-103h-103zM819 0v102h103v-102h-103zM819 819v103h103v-103h-103z" />
<glyph unicode="&#xb2;" horiz-adv-x="1024" d="M0 410v102h102v-102h-102zM0 614v103h102v-103h-102zM0 1229v102h102v-102h-102zM205 410v102h102v-102h-102zM205 819v103h102v-103h-102zM205 1229v102h102v-102h-102zM410 410v102h102v-102h-102zM410 819v103h102v-103h-102zM410 1229v102h102v-102h-102zM614 410 v102h103v-102h-103zM614 1024v102h103v-102h-103z" />
<glyph unicode="&#xb3;" horiz-adv-x="1024" d="M0 410v102h102v-102h-102zM0 1229v102h102v-102h-102zM205 410v102h102v-102h-102zM205 819v103h102v-103h-102zM205 1229v102h102v-102h-102zM410 410v102h102v-102h-102zM410 819v103h102v-103h-102zM410 1229v102h102v-102h-102zM614 614v103h103v-103h-103zM614 1024 v102h103v-102h-103z" />
<glyph unicode="&#xb4;" horiz-adv-x="819" d="M0 819v103h102v-103h-102zM205 1024v102h102v-102h-102zM410 1229v102h102v-102h-102z" />
<glyph unicode="&#xb5;" d="M0 0v102h102v-102h-102zM0 -102h102v-103h-102v103zM0 205v102h102v-102h-102zM0 410v102h102v-102h-102zM0 614v103h102v-103h-102zM0 819v103h102v-103h-102zM0 1024v102h102v-102h-102zM205 205v102h102v-102h-102zM410 0v102h102v-102h-102zM614 205v102h103v-102 h-103zM819 0v102h103v-102h-103zM819 205v102h103v-102h-103zM819 410v102h103v-102h-103zM819 614v103h103v-103h-103zM819 819v103h103v-103h-103zM819 1024v102h103v-102h-103z" />
<glyph unicode="&#xb6;" d="M0 819v103h102v-103h-102zM0 1024v102h102v-102h-102zM205 0v102h102v-102h-102zM205 205v102h102v-102h-102zM205 410v102h102v-102h-102zM205 614v103h102v-103h-102zM205 819v103h102v-103h-102zM205 1024v102h102v-102h-102zM205 1229v102h102v-102h-102zM410 1229 v102h102v-102h-102zM614 0v102h103v-102h-103zM614 205v102h103v-102h-103zM614 410v102h103v-102h-103zM614 614v103h103v-103h-103zM614 819v103h103v-103h-103zM614 1024v102h103v-102h-103zM614 1229v102h103v-102h-103zM819 1229v102h103v-102h-103z" />
<glyph unicode="&#xb7;" horiz-adv-x="409" d="M0 614v103h102v-103h-102z" />
<glyph unicode="&#xb8;" horiz-adv-x="614" d="M0 -307h102v-103h-102v103zM205 -102h102v-103h-102v103z" />
<glyph unicode="&#xb9;" horiz-adv-x="819" d="M0 410v102h102v-102h-102zM0 1229v102h102v-102h-102zM205 410v102h102v-102h-102zM205 614v103h102v-103h-102zM205 819v103h102v-103h-102zM205 1024v102h102v-102h-102zM205 1229v102h102v-102h-102zM410 410v102h102v-102h-102z" />
<glyph unicode="&#xba;" horiz-adv-x="1024" d="M0 614v103h102v-103h-102zM0 819v103h102v-103h-102zM0 1024v102h102v-102h-102zM205 410v102h102v-102h-102zM205 1229v102h102v-102h-102zM410 410v102h102v-102h-102zM410 1229v102h102v-102h-102zM614 614v103h103v-103h-103zM614 819v103h103v-103h-103zM614 1024 v102h103v-102h-103z" />
<glyph unicode="&#xbb;" d="M0 205v102h102v-102h-102zM0 1024v102h102v-102h-102zM205 410v102h102v-102h-102zM205 819v103h102v-103h-102zM410 205v102h102v-102h-102zM410 614v103h102v-103h-102zM410 1024v102h102v-102h-102zM614 410v102h103v-102h-103zM614 819v103h103v-103h-103zM819 614 v103h103v-103h-103z" />
<glyph unicode="&#xbc;" horiz-adv-x="1638" d="M0 0v102h102v-102h-102zM0 819v103h102v-103h-102zM0 1638v103h102v-103h-102zM205 205v102h102v-102h-102zM205 819v103h102v-103h-102zM205 1024v102h102v-102h-102zM205 1229v102h102v-102h-102zM205 1434v102h102v-102h-102zM205 1638v103h102v-103h-102zM410 410 v102h102v-102h-102zM410 819v103h102v-103h-102zM614 0h103v-102h-103v102zM614 102v103h103v-103h-103zM614 307v103h103v-103h-103zM614 614v103h103v-103h-103zM819 0h103v-102h-103v102zM819 819v103h103v-103h-103zM1024 0h102v-102h-102v102zM1024 1024v102h102v-102 h-102zM1229 0h102v-102h-102v102zM1229 102v103h102v-103h-102zM1229 -205h102v-102h-102v102zM1229 307v103h102v-103h-102zM1229 -410h102v-102h-102v102z" />
<glyph unicode="&#xbd;" horiz-adv-x="1638" d="M0 0v102h102v-102h-102zM0 819v103h102v-103h-102zM0 1638v103h102v-103h-102zM205 205v102h102v-102h-102zM205 819v103h102v-103h-102zM205 1024v102h102v-102h-102zM205 1229v102h102v-102h-102zM205 1434v102h102v-102h-102zM205 1638v103h102v-103h-102zM410 410 v102h102v-102h-102zM410 819v103h102v-103h-102zM614 -205h103v-102h-103v102zM614 307v103h103v-103h-103zM614 -410h103v-102h-103v102zM614 614v103h103v-103h-103zM819 0h103v-102h-103v102zM819 307v103h103v-103h-103zM819 -410h103v-102h-103v102zM819 819v103h103 v-103h-103zM1024 0h102v-102h-102v102zM1024 307v103h102v-103h-102zM1024 -410h102v-102h-102v102zM1024 1024v102h102v-102h-102zM1229 102v103h102v-103h-102zM1229 -410h102v-102h-102v102z" />
<glyph unicode="&#xbe;" horiz-adv-x="1638" d="M0 0v102h102v-102h-102zM0 819v103h102v-103h-102zM0 1638v103h102v-103h-102zM205 205v102h102v-102h-102zM205 819v103h102v-103h-102zM205 1229v102h102v-102h-102zM205 1638v103h102v-103h-102zM410 410v102h102v-102h-102zM410 819v103h102v-103h-102zM410 1229v102 h102v-102h-102zM410 1638v103h102v-103h-102zM614 0h103v-102h-103v102zM614 102v103h103v-103h-103zM614 307v103h103v-103h-103zM614 614v103h103v-103h-103zM614 1024v102h103v-102h-103zM614 1434v102h103v-102h-103zM819 0h103v-102h-103v102zM819 819v103h103v-103 h-103zM1024 0h102v-102h-102v102zM1024 1024v102h102v-102h-102zM1229 0h102v-102h-102v102zM1229 102v103h102v-103h-102zM1229 -205h102v-102h-102v102zM1229 307v103h102v-103h-102zM1229 -410h102v-102h-102v102z" />
<glyph unicode="&#xbf;" d="M0 205v102h102v-102h-102zM0 410v102h102v-102h-102zM205 0v102h102v-102h-102zM205 614v103h102v-103h-102zM410 0v102h102v-102h-102zM410 819v103h102v-103h-102zM410 1229v102h102v-102h-102zM614 0v102h103v-102h-103zM819 205v102h103v-102h-103z" />
<glyph unicode="&#xc0;" d="M0 0v102h102v-102h-102zM0 205v102h102v-102h-102zM0 410v102h102v-102h-102zM0 614v103h102v-103h-102zM0 819v103h102v-103h-102zM0 1024v102h102v-102h-102zM205 614v103h102v-103h-102zM205 1229v102h102v-102h-102zM205 1843v103h102v-103h-102zM410 614v103h102 v-103h-102zM410 1229v102h102v-102h-102zM410 1638v103h102v-103h-102zM614 614v103h103v-103h-103zM614 1229v102h103v-102h-103zM819 0v102h103v-102h-103zM819 205v102h103v-102h-103zM819 410v102h103v-102h-103zM819 614v103h103v-103h-103zM819 819v103h103v-103h-103 zM819 1024v102h103v-102h-103z" />
<glyph unicode="&#xc1;" d="M0 0v102h102v-102h-102zM0 205v102h102v-102h-102zM0 410v102h102v-102h-102zM0 614v103h102v-103h-102zM0 819v103h102v-103h-102zM0 1024v102h102v-102h-102zM205 614v103h102v-103h-102zM205 1229v102h102v-102h-102zM410 614v103h102v-103h-102zM410 1229v102h102 v-102h-102zM410 1638v103h102v-103h-102zM614 614v103h103v-103h-103zM614 1229v102h103v-102h-103zM614 1843v103h103v-103h-103zM819 0v102h103v-102h-103zM819 205v102h103v-102h-103zM819 410v102h103v-102h-103zM819 614v103h103v-103h-103zM819 819v103h103v-103h-103 zM819 1024v102h103v-102h-103z" />
<glyph unicode="&#xc2;" d="M0 0v102h102v-102h-102zM0 205v102h102v-102h-102zM0 410v102h102v-102h-102zM0 614v103h102v-103h-102zM0 819v103h102v-103h-102zM0 1024v102h102v-102h-102zM205 614v103h102v-103h-102zM205 1229v102h102v-102h-102zM205 1638v103h102v-103h-102zM410 614v103h102 v-103h-102zM410 1229v102h102v-102h-102zM410 1843v103h102v-103h-102zM614 614v103h103v-103h-103zM614 1229v102h103v-102h-103zM614 1638v103h103v-103h-103zM819 0v102h103v-102h-103zM819 205v102h103v-102h-103zM819 410v102h103v-102h-103zM819 614v103h103v-103 h-103zM819 819v103h103v-103h-103zM819 1024v102h103v-102h-103z" />
<glyph unicode="&#xc3;" d="M0 0v102h102v-102h-102zM0 205v102h102v-102h-102zM0 410v102h102v-102h-102zM0 614v103h102v-103h-102zM0 819v103h102v-103h-102zM0 1024v102h102v-102h-102zM205 614v103h102v-103h-102zM205 1229v102h102v-102h-102zM205 1638v103h102v-103h-102zM410 614v103h102 v-103h-102zM410 1229v102h102v-102h-102zM410 1843v103h102v-103h-102zM614 614v103h103v-103h-103zM614 1229v102h103v-102h-103zM614 1638v103h103v-103h-103zM819 0v102h103v-102h-103zM819 205v102h103v-102h-103zM819 410v102h103v-102h-103zM819 614v103h103v-103 h-103zM819 819v103h103v-103h-103zM819 1024v102h103v-102h-103zM819 1843v103h103v-103h-103z" />
<glyph unicode="&#xc4;" d="M0 0v102h102v-102h-102zM0 205v102h102v-102h-102zM0 410v102h102v-102h-102zM0 614v103h102v-103h-102zM0 819v103h102v-103h-102zM0 1024v102h102v-102h-102zM205 614v103h102v-103h-102zM205 1229v102h102v-102h-102zM205 1638v103h102v-103h-102zM410 614v103h102 v-103h-102zM410 1229v102h102v-102h-102zM614 614v103h103v-103h-103zM614 1229v102h103v-102h-103zM614 1638v103h103v-103h-103zM819 0v102h103v-102h-103zM819 205v102h103v-102h-103zM819 410v102h103v-102h-103zM819 614v103h103v-103h-103zM819 819v103h103v-103h-103 zM819 1024v102h103v-102h-103z" />
<glyph unicode="&#xc5;" d="M0 0v102h102v-102h-102zM0 205v102h102v-102h-102zM0 410v102h102v-102h-102zM0 614v103h102v-103h-102zM0 819v103h102v-103h-102zM0 1024v102h102v-102h-102zM205 614v103h102v-103h-102zM205 1229v102h102v-102h-102zM205 1638v103h102v-103h-102zM410 614v103h102 v-103h-102zM410 1229v102h102v-102h-102zM410 1434v102h102v-102h-102zM410 1843v103h102v-103h-102zM614 614v103h103v-103h-103zM614 1229v102h103v-102h-103zM614 1638v103h103v-103h-103zM819 0v102h103v-102h-103zM819 205v102h103v-102h-103zM819 410v102h103v-102 h-103zM819 614v103h103v-103h-103zM819 819v103h103v-103h-103zM819 1024v102h103v-102h-103z" />
<glyph unicode="&#xc6;" horiz-adv-x="1638" d="M0 0v102h102v-102h-102zM0 205v102h102v-102h-102zM0 410v102h102v-102h-102zM0 614v103h102v-103h-102zM0 819v103h102v-103h-102zM0 1024v102h102v-102h-102zM205 614v103h102v-103h-102zM205 1229v102h102v-102h-102zM410 614v103h102v-103h-102zM410 1229v102h102 v-102h-102zM614 0v102h103v-102h-103zM614 205v102h103v-102h-103zM614 410v102h103v-102h-103zM614 614v103h103v-103h-103zM614 819v103h103v-103h-103zM614 1024v102h103v-102h-103zM614 1229v102h103v-102h-103zM819 0v102h103v-102h-103zM819 614v103h103v-103h-103z M819 1229v102h103v-102h-103zM1024 0v102h102v-102h-102zM1024 614v103h102v-103h-102zM1024 1229v102h102v-102h-102zM1229 0v102h102v-102h-102zM1229 1229v102h102v-102h-102z" />
<glyph unicode="&#xc7;" d="M0 205v102h102v-102h-102zM0 410v102h102v-102h-102zM0 614v103h102v-103h-102zM0 819v103h102v-103h-102zM0 1024v102h102v-102h-102zM205 0v102h102v-102h-102zM205 -307h102v-103h-102v103zM205 1229v102h102v-102h-102zM410 0v102h102v-102h-102zM410 -102h102v-103 h-102v103zM410 1229v102h102v-102h-102zM614 0v102h103v-102h-103zM614 1229v102h103v-102h-103zM819 205v102h103v-102h-103zM819 1024v102h103v-102h-103z" />
<glyph unicode="&#xc8;" d="M0 0v102h102v-102h-102zM0 205v102h102v-102h-102zM0 410v102h102v-102h-102zM0 614v103h102v-103h-102zM0 819v103h102v-103h-102zM0 1024v102h102v-102h-102zM0 1229v102h102v-102h-102zM205 0v102h102v-102h-102zM205 614v103h102v-103h-102zM205 1229v102h102v-102 h-102zM205 1843v103h102v-103h-102zM410 0v102h102v-102h-102zM410 614v103h102v-103h-102zM410 1229v102h102v-102h-102zM410 1638v103h102v-103h-102zM614 0v102h103v-102h-103zM614 614v103h103v-103h-103zM614 1229v102h103v-102h-103zM819 0v102h103v-102h-103z M819 1229v102h103v-102h-103z" />
<glyph unicode="&#xc9;" d="M0 0v102h102v-102h-102zM0 205v102h102v-102h-102zM0 410v102h102v-102h-102zM0 614v103h102v-103h-102zM0 819v103h102v-103h-102zM0 1024v102h102v-102h-102zM0 1229v102h102v-102h-102zM205 0v102h102v-102h-102zM205 614v103h102v-103h-102zM205 1229v102h102v-102 h-102zM410 0v102h102v-102h-102zM410 614v103h102v-103h-102zM410 1229v102h102v-102h-102zM410 1638v103h102v-103h-102zM614 0v102h103v-102h-103zM614 614v103h103v-103h-103zM614 1229v102h103v-102h-103zM614 1843v103h103v-103h-103zM819 0v102h103v-102h-103z M819 1229v102h103v-102h-103z" />
<glyph unicode="&#xca;" d="M0 0v102h102v-102h-102zM0 205v102h102v-102h-102zM0 410v102h102v-102h-102zM0 614v103h102v-103h-102zM0 819v103h102v-103h-102zM0 1024v102h102v-102h-102zM0 1229v102h102v-102h-102zM205 0v102h102v-102h-102zM205 614v103h102v-103h-102zM205 1229v102h102v-102 h-102zM205 1638v103h102v-103h-102zM410 0v102h102v-102h-102zM410 614v103h102v-103h-102zM410 1229v102h102v-102h-102zM410 1843v103h102v-103h-102zM614 0v102h103v-102h-103zM614 614v103h103v-103h-103zM614 1229v102h103v-102h-103zM614 1638v103h103v-103h-103z M819 0v102h103v-102h-103zM819 1229v102h103v-102h-103z" />
<glyph unicode="&#xcb;" d="M0 0v102h102v-102h-102zM0 205v102h102v-102h-102zM0 410v102h102v-102h-102zM0 614v103h102v-103h-102zM0 819v103h102v-103h-102zM0 1024v102h102v-102h-102zM0 1229v102h102v-102h-102zM205 0v102h102v-102h-102zM205 614v103h102v-103h-102zM205 1229v102h102v-102 h-102zM205 1638v103h102v-103h-102zM410 0v102h102v-102h-102zM410 614v103h102v-103h-102zM410 1229v102h102v-102h-102zM614 0v102h103v-102h-103zM614 614v103h103v-103h-103zM614 1229v102h103v-102h-103zM614 1638v103h103v-103h-103zM819 0v102h103v-102h-103z M819 1229v102h103v-102h-103z" />
<glyph unicode="&#xcc;" d="M0 0v102h102v-102h-102zM0 1229v102h102v-102h-102zM205 0v102h102v-102h-102zM205 1229v102h102v-102h-102zM205 1843v103h102v-103h-102zM410 0v102h102v-102h-102zM410 205v102h102v-102h-102zM410 410v102h102v-102h-102zM410 614v103h102v-103h-102zM410 819v103 h102v-103h-102zM410 1024v102h102v-102h-102zM410 1229v102h102v-102h-102zM410 1638v103h102v-103h-102zM614 0v102h103v-102h-103zM614 1229v102h103v-102h-103zM819 0v102h103v-102h-103zM819 1229v102h103v-102h-103z" />
<glyph unicode="&#xcd;" d="M0 0v102h102v-102h-102zM0 1229v102h102v-102h-102zM205 0v102h102v-102h-102zM205 1229v102h102v-102h-102zM410 0v102h102v-102h-102zM410 205v102h102v-102h-102zM410 410v102h102v-102h-102zM410 614v103h102v-103h-102zM410 819v103h102v-103h-102zM410 1024v102 h102v-102h-102zM410 1229v102h102v-102h-102zM410 1638v103h102v-103h-102zM614 0v102h103v-102h-103zM614 1229v102h103v-102h-103zM614 1843v103h103v-103h-103zM819 0v102h103v-102h-103zM819 1229v102h103v-102h-103z" />
<glyph unicode="&#xce;" d="M0 0v102h102v-102h-102zM0 1229v102h102v-102h-102zM205 0v102h102v-102h-102zM205 1229v102h102v-102h-102zM205 1638v103h102v-103h-102zM410 0v102h102v-102h-102zM410 205v102h102v-102h-102zM410 410v102h102v-102h-102zM410 614v103h102v-103h-102zM410 819v103 h102v-103h-102zM410 1024v102h102v-102h-102zM410 1229v102h102v-102h-102zM410 1843v103h102v-103h-102zM614 0v102h103v-102h-103zM614 1229v102h103v-102h-103zM614 1638v103h103v-103h-103zM819 0v102h103v-102h-103zM819 1229v102h103v-102h-103z" />
<glyph unicode="&#xcf;" d="M0 0v102h102v-102h-102zM0 1229v102h102v-102h-102zM205 0v102h102v-102h-102zM205 1229v102h102v-102h-102zM205 1638v103h102v-103h-102zM410 0v102h102v-102h-102zM410 205v102h102v-102h-102zM410 410v102h102v-102h-102zM410 614v103h102v-103h-102zM410 819v103 h102v-103h-102zM410 1024v102h102v-102h-102zM410 1229v102h102v-102h-102zM614 0v102h103v-102h-103zM614 1229v102h103v-102h-103zM614 1638v103h103v-103h-103zM819 0v102h103v-102h-103zM819 1229v102h103v-102h-103z" />
<glyph unicode="&#xd0;" d="M0 614v103h102v-103h-102zM205 0v102h102v-102h-102zM205 205v102h102v-102h-102zM205 410v102h102v-102h-102zM205 614v103h102v-103h-102zM205 819v103h102v-103h-102zM205 1024v102h102v-102h-102zM205 1229v102h102v-102h-102zM410 0v102h102v-102h-102zM410 614v103 h102v-103h-102zM410 1229v102h102v-102h-102zM614 0v102h103v-102h-103zM614 1229v102h103v-102h-103zM819 205v102h103v-102h-103zM819 410v102h103v-102h-103zM819 614v103h103v-103h-103zM819 819v103h103v-103h-103zM819 1024v102h103v-102h-103z" />
<glyph unicode="&#xd1;" d="M0 0v102h102v-102h-102zM0 205v102h102v-102h-102zM0 410v102h102v-102h-102zM0 614v103h102v-103h-102zM0 819v103h102v-103h-102zM0 1024v102h102v-102h-102zM0 1229v102h102v-102h-102zM205 819v103h102v-103h-102zM205 1638v103h102v-103h-102zM410 614v103h102v-103 h-102zM410 1843v103h102v-103h-102zM614 410v102h103v-102h-103zM614 1638v103h103v-103h-103zM819 0v102h103v-102h-103zM819 205v102h103v-102h-103zM819 410v102h103v-102h-103zM819 614v103h103v-103h-103zM819 819v103h103v-103h-103zM819 1024v102h103v-102h-103z M819 1229v102h103v-102h-103zM819 1843v103h103v-103h-103z" />
<glyph unicode="&#xd2;" d="M0 205v102h102v-102h-102zM0 410v102h102v-102h-102zM0 614v103h102v-103h-102zM0 819v103h102v-103h-102zM0 1024v102h102v-102h-102zM205 0v102h102v-102h-102zM205 1229v102h102v-102h-102zM205 1843v103h102v-103h-102zM410 0v102h102v-102h-102zM410 1229v102h102 v-102h-102zM410 1638v103h102v-103h-102zM614 0v102h103v-102h-103zM614 1229v102h103v-102h-103zM819 205v102h103v-102h-103zM819 410v102h103v-102h-103zM819 614v103h103v-103h-103zM819 819v103h103v-103h-103zM819 1024v102h103v-102h-103z" />
<glyph unicode="&#xd3;" d="M0 205v102h102v-102h-102zM0 410v102h102v-102h-102zM0 614v103h102v-103h-102zM0 819v103h102v-103h-102zM0 1024v102h102v-102h-102zM205 0v102h102v-102h-102zM205 1229v102h102v-102h-102zM410 0v102h102v-102h-102zM410 1229v102h102v-102h-102zM410 1638v103h102 v-103h-102zM614 0v102h103v-102h-103zM614 1229v102h103v-102h-103zM614 1843v103h103v-103h-103zM819 205v102h103v-102h-103zM819 410v102h103v-102h-103zM819 614v103h103v-103h-103zM819 819v103h103v-103h-103zM819 1024v102h103v-102h-103z" />
<glyph unicode="&#xd4;" d="M0 205v102h102v-102h-102zM0 410v102h102v-102h-102zM0 614v103h102v-103h-102zM0 819v103h102v-103h-102zM0 1024v102h102v-102h-102zM205 0v102h102v-102h-102zM205 1229v102h102v-102h-102zM205 1638v103h102v-103h-102zM410 0v102h102v-102h-102zM410 1229v102h102 v-102h-102zM410 1843v103h102v-103h-102zM614 0v102h103v-102h-103zM614 1229v102h103v-102h-103zM614 1638v103h103v-103h-103zM819 205v102h103v-102h-103zM819 410v102h103v-102h-103zM819 614v103h103v-103h-103zM819 819v103h103v-103h-103zM819 1024v102h103v-102 h-103z" />
<glyph unicode="&#xd5;" d="M0 205v102h102v-102h-102zM0 410v102h102v-102h-102zM0 614v103h102v-103h-102zM0 819v103h102v-103h-102zM0 1024v102h102v-102h-102zM205 0v102h102v-102h-102zM205 1229v102h102v-102h-102zM205 1638v103h102v-103h-102zM410 0v102h102v-102h-102zM410 1229v102h102 v-102h-102zM410 1843v103h102v-103h-102zM614 0v102h103v-102h-103zM614 1229v102h103v-102h-103zM614 1638v103h103v-103h-103zM819 205v102h103v-102h-103zM819 410v102h103v-102h-103zM819 614v103h103v-103h-103zM819 819v103h103v-103h-103zM819 1024v102h103v-102 h-103zM819 1843v103h103v-103h-103z" />
<glyph unicode="&#xd6;" d="M0 205v102h102v-102h-102zM0 410v102h102v-102h-102zM0 614v103h102v-103h-102zM0 819v103h102v-103h-102zM0 1024v102h102v-102h-102zM205 0v102h102v-102h-102zM205 1229v102h102v-102h-102zM205 1638v103h102v-103h-102zM410 0v102h102v-102h-102zM410 1229v102h102 v-102h-102zM614 0v102h103v-102h-103zM614 1229v102h103v-102h-103zM614 1638v103h103v-103h-103zM819 205v102h103v-102h-103zM819 410v102h103v-102h-103zM819 614v103h103v-103h-103zM819 819v103h103v-103h-103zM819 1024v102h103v-102h-103z" />
<glyph unicode="&#xd7;" horiz-adv-x="819" d="M0 410v102h102v-102h-102zM0 819v103h102v-103h-102zM205 614v103h102v-103h-102zM410 410v102h102v-102h-102zM410 819v103h102v-103h-102z" />
<glyph unicode="&#xd8;" d="M0 205v102h102v-102h-102zM0 410v102h102v-102h-102zM0 614v103h102v-103h-102zM0 819v103h102v-103h-102zM0 1024v102h102v-102h-102zM205 0v102h102v-102h-102zM205 410v102h102v-102h-102zM205 1229v102h102v-102h-102zM410 0v102h102v-102h-102zM410 614v103h102 v-103h-102zM410 1229v102h102v-102h-102zM614 0v102h103v-102h-103zM614 819v103h103v-103h-103zM614 1229v102h103v-102h-103zM819 205v102h103v-102h-103zM819 410v102h103v-102h-103zM819 614v103h103v-103h-103zM819 819v103h103v-103h-103zM819 1024v102h103v-102h-103 z" />
<glyph unicode="&#xd9;" d="M0 205v102h102v-102h-102zM0 410v102h102v-102h-102zM0 614v103h102v-103h-102zM0 819v103h102v-103h-102zM0 1024v102h102v-102h-102zM0 1229v102h102v-102h-102zM205 0v102h102v-102h-102zM205 1843v103h102v-103h-102zM410 0v102h102v-102h-102zM410 1638v103h102 v-103h-102zM614 0v102h103v-102h-103zM819 205v102h103v-102h-103zM819 410v102h103v-102h-103zM819 614v103h103v-103h-103zM819 819v103h103v-103h-103zM819 1024v102h103v-102h-103zM819 1229v102h103v-102h-103z" />
<glyph unicode="&#xda;" d="M0 205v102h102v-102h-102zM0 410v102h102v-102h-102zM0 614v103h102v-103h-102zM0 819v103h102v-103h-102zM0 1024v102h102v-102h-102zM0 1229v102h102v-102h-102zM205 0v102h102v-102h-102zM410 0v102h102v-102h-102zM410 1638v103h102v-103h-102zM614 0v102h103v-102 h-103zM614 1843v103h103v-103h-103zM819 205v102h103v-102h-103zM819 410v102h103v-102h-103zM819 614v103h103v-103h-103zM819 819v103h103v-103h-103zM819 1024v102h103v-102h-103zM819 1229v102h103v-102h-103z" />
<glyph unicode="&#xdb;" d="M0 205v102h102v-102h-102zM0 410v102h102v-102h-102zM0 614v103h102v-103h-102zM0 819v103h102v-103h-102zM0 1024v102h102v-102h-102zM0 1229v102h102v-102h-102zM205 0v102h102v-102h-102zM205 1638v103h102v-103h-102zM410 0v102h102v-102h-102zM410 1843v103h102 v-103h-102zM614 0v102h103v-102h-103zM614 1638v103h103v-103h-103zM819 205v102h103v-102h-103zM819 410v102h103v-102h-103zM819 614v103h103v-103h-103zM819 819v103h103v-103h-103zM819 1024v102h103v-102h-103zM819 1229v102h103v-102h-103z" />
<glyph unicode="&#xdc;" d="M0 205v102h102v-102h-102zM0 410v102h102v-102h-102zM0 614v103h102v-103h-102zM0 819v103h102v-103h-102zM0 1024v102h102v-102h-102zM0 1229v102h102v-102h-102zM205 0v102h102v-102h-102zM205 1638v103h102v-103h-102zM410 0v102h102v-102h-102zM614 0v102h103v-102 h-103zM614 1638v103h103v-103h-103zM819 205v102h103v-102h-103zM819 410v102h103v-102h-103zM819 614v103h103v-103h-103zM819 819v103h103v-103h-103zM819 1024v102h103v-102h-103zM819 1229v102h103v-102h-103z" />
<glyph unicode="&#xdd;" d="M0 1229v102h102v-102h-102zM205 1024v102h102v-102h-102zM410 0v102h102v-102h-102zM410 205v102h102v-102h-102zM410 410v102h102v-102h-102zM410 614v103h102v-103h-102zM410 819v103h102v-103h-102zM410 1638v103h102v-103h-102zM614 1024v102h103v-102h-103z M614 1843v103h103v-103h-103zM819 1229v102h103v-102h-103z" />
<glyph unicode="&#xde;" d="M0 0v102h102v-102h-102zM0 205v102h102v-102h-102zM0 410v102h102v-102h-102zM0 614v103h102v-103h-102zM0 819v103h102v-103h-102zM0 1024v102h102v-102h-102zM0 1229v102h102v-102h-102zM205 205v102h102v-102h-102zM205 1024v102h102v-102h-102zM410 205v102h102v-102 h-102zM410 1024v102h102v-102h-102zM614 205v102h103v-102h-103zM614 1024v102h103v-102h-103zM819 410v102h103v-102h-103zM819 614v103h103v-103h-103zM819 819v103h103v-103h-103z" />
<glyph unicode="&#xdf;" d="M0 0v102h102v-102h-102zM0 205v102h102v-102h-102zM0 410v102h102v-102h-102zM0 614v103h102v-103h-102zM0 819v103h102v-103h-102zM0 1024v102h102v-102h-102zM205 614v103h102v-103h-102zM205 1229v102h102v-102h-102zM410 0v102h102v-102h-102zM410 614v103h102v-103 h-102zM410 1229v102h102v-102h-102zM614 0v102h103v-102h-103zM614 614v103h103v-103h-103zM614 819v103h103v-103h-103zM614 1024v102h103v-102h-103zM819 205v102h103v-102h-103zM819 410v102h103v-102h-103z" />
<glyph unicode="&#xe0;" horiz-adv-x="1024" d="M0 205v102h102v-102h-102zM0 410v102h102v-102h-102zM0 614v103h102v-103h-102zM0 1434v102h102v-102h-102zM205 0v102h102v-102h-102zM205 819v103h102v-103h-102zM205 1229v102h102v-102h-102zM410 0v102h102v-102h-102zM410 819v103h102v-103h-102zM614 0v102h103 v-102h-103zM614 205v102h103v-102h-103zM614 410v102h103v-102h-103zM614 614v103h103v-103h-103zM614 819v103h103v-103h-103z" />
<glyph unicode="&#xe1;" horiz-adv-x="1024" d="M0 205v102h102v-102h-102zM0 410v102h102v-102h-102zM0 614v103h102v-103h-102zM205 0v102h102v-102h-102zM205 819v103h102v-103h-102zM410 0v102h102v-102h-102zM410 819v103h102v-103h-102zM410 1229v102h102v-102h-102zM614 0v102h103v-102h-103zM614 205v102h103 v-102h-103zM614 410v102h103v-102h-103zM614 614v103h103v-103h-103zM614 819v103h103v-103h-103zM614 1434v102h103v-102h-103z" />
<glyph unicode="&#xe2;" horiz-adv-x="1024" d="M0 205v102h102v-102h-102zM0 410v102h102v-102h-102zM0 614v103h102v-103h-102zM0 1229v102h102v-102h-102zM205 0v102h102v-102h-102zM205 819v103h102v-103h-102zM205 1434v102h102v-102h-102zM410 0v102h102v-102h-102zM410 819v103h102v-103h-102zM410 1434v102h102 v-102h-102zM614 0v102h103v-102h-103zM614 205v102h103v-102h-103zM614 410v102h103v-102h-103zM614 614v103h103v-103h-103zM614 819v103h103v-103h-103zM614 1229v102h103v-102h-103z" />
<glyph unicode="&#xe3;" horiz-adv-x="1024" d="M0 205v102h102v-102h-102zM0 410v102h102v-102h-102zM0 614v103h102v-103h-102zM0 1229v102h102v-102h-102zM205 0v102h102v-102h-102zM205 819v103h102v-103h-102zM205 1434v102h102v-102h-102zM410 0v102h102v-102h-102zM410 819v103h102v-103h-102zM410 1229v102h102 v-102h-102zM614 0v102h103v-102h-103zM614 205v102h103v-102h-103zM614 410v102h103v-102h-103zM614 614v103h103v-103h-103zM614 819v103h103v-103h-103zM614 1434v102h103v-102h-103z" />
<glyph unicode="&#xe4;" horiz-adv-x="1024" d="M0 205v102h102v-102h-102zM0 410v102h102v-102h-102zM0 614v103h102v-103h-102zM205 0v102h102v-102h-102zM205 819v103h102v-103h-102zM205 1229v102h102v-102h-102zM410 0v102h102v-102h-102zM410 819v103h102v-103h-102zM614 0v102h103v-102h-103zM614 205v102h103 v-102h-103zM614 410v102h103v-102h-103zM614 614v103h103v-103h-103zM614 819v103h103v-103h-103zM614 1229v102h103v-102h-103z" />
<glyph unicode="&#xe5;" horiz-adv-x="1024" d="M0 205v102h102v-102h-102zM0 410v102h102v-102h-102zM0 614v103h102v-103h-102zM205 0v102h102v-102h-102zM205 819v103h102v-103h-102zM205 1434v102h102v-102h-102zM410 0v102h102v-102h-102zM410 819v103h102v-103h-102zM410 1229v102h102v-102h-102zM410 1638v103 h102v-103h-102zM614 0v102h103v-102h-103zM614 205v102h103v-102h-103zM614 410v102h103v-102h-103zM614 614v103h103v-103h-103zM614 819v103h103v-103h-103zM614 1434v102h103v-102h-103z" />
<glyph unicode="&#xe6;" horiz-adv-x="1638" d="M0 205v102h102v-102h-102zM205 0v102h102v-102h-102zM205 410v102h102v-102h-102zM205 819v103h102v-103h-102zM410 0v102h102v-102h-102zM410 410v102h102v-102h-102zM410 819v103h102v-103h-102zM614 0v102h103v-102h-103zM614 205v102h103v-102h-103zM614 410v102h103 v-102h-103zM614 614v103h103v-103h-103zM614 819v103h103v-103h-103zM819 0v102h103v-102h-103zM819 410v102h103v-102h-103zM819 819v103h103v-103h-103zM1024 0v102h102v-102h-102zM1024 410v102h102v-102h-102zM1024 819v103h102v-103h-102zM1229 410v102h102v-102h-102z M1229 614v103h102v-103h-102z" />
<glyph unicode="&#xe7;" horiz-adv-x="1024" d="M0 205v102h102v-102h-102zM0 410v102h102v-102h-102zM0 614v103h102v-103h-102zM205 0v102h102v-102h-102zM205 -307h102v-103h-102v103zM205 819v103h102v-103h-102zM410 0v102h102v-102h-102zM410 -102h102v-103h-102v103zM410 819v103h102v-103h-102zM614 0v102h103 v-102h-103zM614 819v103h103v-103h-103z" />
<glyph unicode="&#xe8;" horiz-adv-x="1024" d="M0 205v102h102v-102h-102zM0 410v102h102v-102h-102zM0 614v103h102v-103h-102zM0 1434v102h102v-102h-102zM205 0v102h102v-102h-102zM205 410v102h102v-102h-102zM205 819v103h102v-103h-102zM205 1229v102h102v-102h-102zM410 0v102h102v-102h-102zM410 410v102h102 v-102h-102zM410 819v103h102v-103h-102zM614 0v102h103v-102h-103zM614 410v102h103v-102h-103zM614 614v103h103v-103h-103z" />
<glyph unicode="&#xe9;" horiz-adv-x="1024" d="M0 205v102h102v-102h-102zM0 410v102h102v-102h-102zM0 614v103h102v-103h-102zM205 0v102h102v-102h-102zM205 410v102h102v-102h-102zM205 819v103h102v-103h-102zM410 0v102h102v-102h-102zM410 410v102h102v-102h-102zM410 819v103h102v-103h-102zM410 1229v102h102 v-102h-102zM614 0v102h103v-102h-103zM614 410v102h103v-102h-103zM614 614v103h103v-103h-103zM614 1434v102h103v-102h-103z" />
<glyph unicode="&#xea;" horiz-adv-x="1024" d="M0 205v102h102v-102h-102zM0 410v102h102v-102h-102zM0 614v103h102v-103h-102zM0 1229v102h102v-102h-102zM205 0v102h102v-102h-102zM205 410v102h102v-102h-102zM205 819v103h102v-103h-102zM205 1434v102h102v-102h-102zM410 0v102h102v-102h-102zM410 410v102h102 v-102h-102zM410 819v103h102v-103h-102zM410 1434v102h102v-102h-102zM614 0v102h103v-102h-103zM614 410v102h103v-102h-103zM614 614v103h103v-103h-103zM614 1229v102h103v-102h-103z" />
<glyph unicode="&#xeb;" horiz-adv-x="1024" d="M0 205v102h102v-102h-102zM0 410v102h102v-102h-102zM0 614v103h102v-103h-102zM205 0v102h102v-102h-102zM205 410v102h102v-102h-102zM205 819v103h102v-103h-102zM205 1229v102h102v-102h-102zM410 0v102h102v-102h-102zM410 410v102h102v-102h-102zM410 819v103h102 v-103h-102zM614 0v102h103v-102h-103zM614 410v102h103v-102h-103zM614 614v103h103v-103h-103zM614 1229v102h103v-102h-103z" />
<glyph unicode="&#xec;" horiz-adv-x="819" d="M0 0v102h102v-102h-102zM0 819v103h102v-103h-102zM0 1434v102h102v-102h-102zM205 0v102h102v-102h-102zM205 205v102h102v-102h-102zM205 410v102h102v-102h-102zM205 614v103h102v-103h-102zM205 819v103h102v-103h-102zM205 1229v102h102v-102h-102zM410 0v102h102 v-102h-102z" />
<glyph unicode="&#xed;" horiz-adv-x="819" d="M0 0v102h102v-102h-102zM0 819v103h102v-103h-102zM205 0v102h102v-102h-102zM205 205v102h102v-102h-102zM205 410v102h102v-102h-102zM205 614v103h102v-103h-102zM205 819v103h102v-103h-102zM205 1229v102h102v-102h-102zM410 0v102h102v-102h-102zM410 1434v102h102 v-102h-102z" />
<glyph unicode="&#xee;" horiz-adv-x="819" d="M0 0v102h102v-102h-102zM0 819v103h102v-103h-102zM0 1229v102h102v-102h-102zM205 0v102h102v-102h-102zM205 205v102h102v-102h-102zM205 410v102h102v-102h-102zM205 614v103h102v-103h-102zM205 819v103h102v-103h-102zM205 1434v102h102v-102h-102zM410 0v102h102 v-102h-102zM410 1229v102h102v-102h-102z" />
<glyph unicode="&#xef;" horiz-adv-x="819" d="M0 0v102h102v-102h-102zM0 819v103h102v-103h-102zM0 1229v102h102v-102h-102zM205 0v102h102v-102h-102zM205 205v102h102v-102h-102zM205 410v102h102v-102h-102zM205 614v103h102v-103h-102zM205 819v103h102v-103h-102zM410 0v102h102v-102h-102zM410 1229v102h102 v-102h-102z" />
<glyph unicode="&#xf0;" horiz-adv-x="1024" d="M0 205v102h102v-102h-102zM0 410v102h102v-102h-102zM0 614v103h102v-103h-102zM205 0v102h102v-102h-102zM205 819v103h102v-103h-102zM205 1229v102h102v-102h-102zM410 0v102h102v-102h-102zM410 819v103h102v-103h-102zM410 1229v102h102v-102h-102zM614 205v102h103 v-102h-103zM614 410v102h103v-102h-103zM614 614v103h103v-103h-103zM614 819v103h103v-103h-103zM614 1024v102h103v-102h-103z" />
<glyph unicode="&#xf1;" horiz-adv-x="1024" d="M0 0v102h102v-102h-102zM0 205v102h102v-102h-102zM0 410v102h102v-102h-102zM0 614v103h102v-103h-102zM0 819v103h102v-103h-102zM0 1229v102h102v-102h-102zM205 819v103h102v-103h-102zM205 1434v102h102v-102h-102zM410 819v103h102v-103h-102zM410 1229v102h102 v-102h-102zM614 0v102h103v-102h-103zM614 205v102h103v-102h-103zM614 410v102h103v-102h-103zM614 614v103h103v-103h-103zM614 1434v102h103v-102h-103z" />
<glyph unicode="&#xf2;" horiz-adv-x="1024" d="M0 205v102h102v-102h-102zM0 410v102h102v-102h-102zM0 614v103h102v-103h-102zM0 1434v102h102v-102h-102zM205 0v102h102v-102h-102zM205 819v103h102v-103h-102zM205 1229v102h102v-102h-102zM410 0v102h102v-102h-102zM410 819v103h102v-103h-102zM614 205v102h103 v-102h-103zM614 410v102h103v-102h-103zM614 614v103h103v-103h-103z" />
<glyph unicode="&#xf3;" horiz-adv-x="1024" d="M0 205v102h102v-102h-102zM0 410v102h102v-102h-102zM0 614v103h102v-103h-102zM205 0v102h102v-102h-102zM205 819v103h102v-103h-102zM410 0v102h102v-102h-102zM410 819v103h102v-103h-102zM410 1229v102h102v-102h-102zM614 205v102h103v-102h-103zM614 410v102h103 v-102h-103zM614 614v103h103v-103h-103zM614 1434v102h103v-102h-103z" />
<glyph unicode="&#xf4;" horiz-adv-x="1024" d="M0 205v102h102v-102h-102zM0 410v102h102v-102h-102zM0 614v103h102v-103h-102zM0 1229v102h102v-102h-102zM205 0v102h102v-102h-102zM205 819v103h102v-103h-102zM205 1434v102h102v-102h-102zM410 0v102h102v-102h-102zM410 819v103h102v-103h-102zM410 1434v102h102 v-102h-102zM614 205v102h103v-102h-103zM614 410v102h103v-102h-103zM614 614v103h103v-103h-103zM614 1229v102h103v-102h-103z" />
<glyph unicode="&#xf5;" horiz-adv-x="1024" d="M0 205v102h102v-102h-102zM0 410v102h102v-102h-102zM0 614v103h102v-103h-102zM0 1229v102h102v-102h-102zM205 0v102h102v-102h-102zM205 819v103h102v-103h-102zM205 1434v102h102v-102h-102zM410 0v102h102v-102h-102zM410 819v103h102v-103h-102zM410 1229v102h102 v-102h-102zM614 205v102h103v-102h-103zM614 410v102h103v-102h-103zM614 614v103h103v-103h-103zM614 1434v102h103v-102h-103z" />
<glyph unicode="&#xf6;" horiz-adv-x="1024" d="M0 205v102h102v-102h-102zM0 410v102h102v-102h-102zM0 614v103h102v-103h-102zM205 0v102h102v-102h-102zM205 819v103h102v-103h-102zM205 1229v102h102v-102h-102zM410 0v102h102v-102h-102zM410 819v103h102v-103h-102zM614 205v102h103v-102h-103zM614 410v102h103 v-102h-103zM614 614v103h103v-103h-103zM614 1229v102h103v-102h-103z" />
<glyph unicode="&#xf7;" d="M0 614v103h102v-103h-102zM205 614v103h102v-103h-102zM410 205v102h102v-102h-102zM410 614v103h102v-103h-102zM410 1024v102h102v-102h-102zM614 614v103h103v-103h-103zM819 614v103h103v-103h-103z" />
<glyph unicode="&#xf8;" horiz-adv-x="1024" d="M0 205v102h102v-102h-102zM0 410v102h102v-102h-102zM0 614v103h102v-103h-102zM205 0v102h102v-102h-102zM205 205v102h102v-102h-102zM205 819v103h102v-103h-102zM307 410v102h103v-102h-103zM410 0v102h102v-102h-102zM410 614v103h102v-103h-102zM410 819v103h102 v-103h-102zM614 205v102h103v-102h-103zM614 410v102h103v-102h-103zM614 614v103h103v-103h-103z" />
<glyph unicode="&#xf9;" horiz-adv-x="1024" d="M0 205v102h102v-102h-102zM0 410v102h102v-102h-102zM0 614v103h102v-103h-102zM0 819v103h102v-103h-102zM205 0v102h102v-102h-102zM205 1229v102h102v-102h-102zM410 0v102h102v-102h-102zM614 205v102h103v-102h-103zM614 410v102h103v-102h-103zM614 614v103h103 v-103h-103zM614 819v103h103v-103h-103zM614 1229v102h103v-102h-103z" />
<glyph unicode="&#xfa;" horiz-adv-x="1024" d="M0 205v102h102v-102h-102zM0 410v102h102v-102h-102zM0 614v103h102v-103h-102zM0 819v103h102v-103h-102zM205 0v102h102v-102h-102zM410 0v102h102v-102h-102zM410 1229v102h102v-102h-102zM614 205v102h103v-102h-103zM614 410v102h103v-102h-103zM614 614v103h103 v-103h-103zM614 819v103h103v-103h-103zM614 1434v102h103v-102h-103z" />
<glyph unicode="&#xfb;" horiz-adv-x="1024" d="M0 205v102h102v-102h-102zM0 410v102h102v-102h-102zM0 614v103h102v-103h-102zM0 819v103h102v-103h-102zM0 1229v102h102v-102h-102zM205 0v102h102v-102h-102zM205 1434v102h102v-102h-102zM410 0v102h102v-102h-102zM410 1434v102h102v-102h-102zM614 205v102h103 v-102h-103zM614 410v102h103v-102h-103zM614 614v103h103v-103h-103zM614 819v103h103v-103h-103zM614 1229v102h103v-102h-103z" />
<glyph unicode="&#xfc;" horiz-adv-x="1024" d="M0 205v102h102v-102h-102zM0 410v102h102v-102h-102zM0 614v103h102v-103h-102zM0 819v103h102v-103h-102zM0 1229v102h102v-102h-102zM205 0v102h102v-102h-102zM205 1434v102h102v-102h-102zM410 0v102h102v-102h-102zM410 1434v102h102v-102h-102zM614 205v102h103 v-102h-103zM614 410v102h103v-102h-103zM614 614v103h103v-103h-103zM614 819v103h103v-103h-103zM614 1229v102h103v-102h-103z" />
<glyph unicode="&#xfd;" horiz-adv-x="1024" d="M0 205v102h102v-102h-102zM0 410v102h102v-102h-102zM0 614v103h102v-103h-102zM0 819v103h102v-103h-102zM205 0v102h102v-102h-102zM205 -307h102v-103h-102v103zM410 0v102h102v-102h-102zM410 -307h102v-103h-102v103zM410 1024v102h102v-102h-102zM614 0v102h103 v-102h-103zM614 -102h103v-103h-103v103zM614 205v102h103v-102h-103zM614 410v102h103v-102h-103zM614 614v103h103v-103h-103zM614 819v103h103v-103h-103zM614 1229v102h103v-102h-103z" />
<glyph unicode="&#xfe;" horiz-adv-x="1024" d="M0 0v102h102v-102h-102zM0 -102h102v-103h-102v103zM0 205v102h102v-102h-102zM0 -307h102v-103h-102v103zM0 410v102h102v-102h-102zM0 614v103h102v-103h-102zM0 819v103h102v-103h-102zM0 1024v102h102v-102h-102zM0 1229v102h102v-102h-102zM205 0v102h102v-102h-102 zM205 819v103h102v-103h-102zM410 0v102h102v-102h-102zM410 819v103h102v-103h-102zM614 205v102h103v-102h-103zM614 410v102h103v-102h-103zM614 614v103h103v-103h-103z" />
<glyph unicode="&#xff;" horiz-adv-x="1024" d="M0 205v102h102v-102h-102zM0 410v102h102v-102h-102zM0 614v103h102v-103h-102zM0 819v103h102v-103h-102zM205 0v102h102v-102h-102zM205 -307h102v-103h-102v103zM307 1229v102h103v-102h-103zM410 0v102h102v-102h-102zM410 -307h102v-103h-102v103zM614 0v102h103 v-102h-103zM614 -102h103v-103h-103v103zM614 205v102h103v-102h-103zM614 410v102h103v-102h-103zM614 614v103h103v-103h-103zM614 819v103h103v-103h-103zM614 1229v102h103v-102h-103z" />
<glyph unicode="&#x152;" d="M0 205v102h102v-102h-102zM0 410v102h102v-102h-102zM0 614v103h102v-103h-102zM0 819v103h102v-103h-102zM0 1024v102h102v-102h-102zM205 0v102h102v-102h-102zM205 1229v102h102v-102h-102zM410 0v102h102v-102h-102zM410 1229v102h102v-102h-102zM614 0v102h103v-102 h-103zM614 205v102h103v-102h-103zM614 410v102h103v-102h-103zM614 614v103h103v-103h-103zM614 819v103h103v-103h-103zM614 1024v102h103v-102h-103zM614 1229v102h103v-102h-103zM819 0v102h103v-102h-103zM819 614v103h103v-103h-103zM819 1229v102h103v-102h-103z M1024 0v102h102v-102h-102zM1024 614v103h102v-103h-102zM1024 1229v102h102v-102h-102zM1229 0v102h102v-102h-102zM1229 1229v102h102v-102h-102z" />
<glyph unicode="&#x153;" horiz-adv-x="1638" d="M0 205v102h102v-102h-102zM0 410v102h102v-102h-102zM0 614v103h102v-103h-102zM205 0v102h102v-102h-102zM205 819v103h102v-103h-102zM410 0v102h102v-102h-102zM410 819v103h102v-103h-102zM614 205v102h103v-102h-103zM614 410v102h103v-102h-103zM614 614v103h103 v-103h-103zM819 0v102h103v-102h-103zM819 410v102h103v-102h-103zM819 819v103h103v-103h-103zM1024 0v102h102v-102h-102zM1024 410v102h102v-102h-102zM1024 819v103h102v-103h-102zM1229 0v102h102v-102h-102zM1229 410v102h102v-102h-102zM1229 614v103h102v-103h-102z " />
<glyph unicode="&#x178;" d="M0 1229v102h102v-102h-102zM205 1024v102h102v-102h-102zM205 1638v103h102v-103h-102zM410 0v102h102v-102h-102zM410 205v102h102v-102h-102zM410 410v102h102v-102h-102zM410 614v103h102v-103h-102zM410 819v103h102v-103h-102zM614 1024v102h103v-102h-103z M614 1638v103h103v-103h-103zM819 1229v102h103v-102h-103z" />
<glyph unicode="&#x2c6;" horiz-adv-x="819" d="M0 1024v102h102v-102h-102zM205 1229v102h102v-102h-102zM410 1024v102h102v-102h-102z" />
<glyph unicode="&#x2dc;" horiz-adv-x="1024" d="M0 1024v102h102v-102h-102zM205 1229v102h102v-102h-102zM410 1024v102h102v-102h-102zM614 1229v102h103v-102h-103z" />
<glyph unicode="&#x2000;" horiz-adv-x="973" />
<glyph unicode="&#x2001;" horiz-adv-x="1946" />
<glyph unicode="&#x2002;" horiz-adv-x="973" />
<glyph unicode="&#x2003;" horiz-adv-x="1946" />
<glyph unicode="&#x2004;" horiz-adv-x="648" />
<glyph unicode="&#x2005;" horiz-adv-x="486" />
<glyph unicode="&#x2006;" horiz-adv-x="324" />
<glyph unicode="&#x2007;" horiz-adv-x="324" />
<glyph unicode="&#x2008;" horiz-adv-x="243" />
<glyph unicode="&#x2009;" horiz-adv-x="389" />
<glyph unicode="&#x200a;" horiz-adv-x="108" />
<glyph unicode="&#x2010;" d="M0 614v103h102v-103h-102zM205 614v103h102v-103h-102zM410 614v103h102v-103h-102zM614 614v103h103v-103h-103zM819 614v103h103v-103h-103z" />
<glyph unicode="&#x2011;" d="M0 614v103h102v-103h-102zM205 614v103h102v-103h-102zM410 614v103h102v-103h-102zM614 614v103h103v-103h-103zM819 614v103h103v-103h-103z" />
<glyph unicode="&#x2012;" d="M0 614v103h102v-103h-102zM205 614v103h102v-103h-102zM410 614v103h102v-103h-102zM614 614v103h103v-103h-103zM819 614v103h103v-103h-103z" />
<glyph unicode="&#x2013;" d="M0 614v103h102v-103h-102zM205 614v103h102v-103h-102zM410 614v103h102v-103h-102zM614 614v103h103v-103h-103zM819 614v103h103v-103h-103z" />
<glyph unicode="&#x2014;" horiz-adv-x="1433" d="M0 614v103h102v-103h-102zM205 614v103h102v-103h-102zM410 614v103h102v-103h-102zM614 614v103h103v-103h-103zM819 614v103h103v-103h-103zM1024 614v103h102v-103h-102z" />
<glyph unicode="&#x2018;" horiz-adv-x="614" d="M0 1434v102h102v-102h-102zM205 1229v102h102v-102h-102z" />
<glyph unicode="&#x2019;" horiz-adv-x="614" d="M0 1229v102h102v-102h-102zM205 1024v102h102v-102h-102z" />
<glyph unicode="&#x201a;" horiz-adv-x="614" d="M0 0v102h102v-102h-102zM205 -102h102v-103h-102v103z" />
<glyph unicode="&#x201c;" horiz-adv-x="1024" d="M0 1434v102h102v-102h-102zM205 1229v102h102v-102h-102zM410 1434v102h102v-102h-102zM614 1229v102h103v-102h-103z" />
<glyph unicode="&#x201d;" horiz-adv-x="1024" d="M0 1229v102h102v-102h-102zM205 1024v102h102v-102h-102zM410 1229v102h102v-102h-102zM614 1024v102h103v-102h-103z" />
<glyph unicode="&#x201e;" horiz-adv-x="1024" d="M0 0v102h102v-102h-102zM205 -102h102v-103h-102v103zM410 0v102h102v-102h-102zM614 -102h103v-103h-103v103z" />
<glyph unicode="&#x2022;" horiz-adv-x="614" d="M0 614v103h102v-103h-102zM0 819v103h102v-103h-102zM205 614v103h102v-103h-102zM205 819v103h102v-103h-102z" />
<glyph unicode="&#x2026;" horiz-adv-x="819" d="M0 0v102h102v-102h-102zM205 0v102h102v-102h-102zM410 0v102h102v-102h-102z" />
<glyph unicode="&#x202f;" horiz-adv-x="389" />
<glyph unicode="&#x2039;" horiz-adv-x="614" d="M0 410v102h102v-102h-102zM0 614v103h102v-103h-102zM205 205v102h102v-102h-102zM205 819v103h102v-103h-102z" />
<glyph unicode="&#x203a;" horiz-adv-x="614" d="M0 205v102h102v-102h-102zM0 819v103h102v-103h-102zM205 410v102h102v-102h-102zM205 614v103h102v-103h-102z" />
<glyph unicode="&#x205f;" horiz-adv-x="486" />
<glyph unicode="&#x20ac;" horiz-adv-x="1433" d="M0 410v102h102v-102h-102zM0 819v103h102v-103h-102zM205 205v102h102v-102h-102zM205 410v102h102v-102h-102zM205 614v103h102v-103h-102zM205 819v103h102v-103h-102zM205 1024v102h102v-102h-102zM410 0v102h102v-102h-102zM410 410v102h102v-102h-102zM410 819v103 h102v-103h-102zM410 1229v102h102v-102h-102zM614 0v102h103v-102h-103zM614 410v102h103v-102h-103zM614 819v103h103v-103h-103zM614 1229v102h103v-102h-103zM819 0v102h103v-102h-103zM819 1229v102h103v-102h-103zM1024 205v102h102v-102h-102zM1024 1024v102h102v-102 h-102z" />
<glyph unicode="&#x2122;" horiz-adv-x="1843" d="M0 1024v102h102v-102h-102zM205 410v102h102v-102h-102zM205 614v103h102v-103h-102zM205 819v103h102v-103h-102zM205 1024v102h102v-102h-102zM410 1024v102h102v-102h-102zM614 410v102h103v-102h-103zM614 614v103h103v-103h-103zM614 819v103h103v-103h-103z M614 1024v102h103v-102h-103zM819 819v103h103v-103h-103zM1024 614v103h102v-103h-102zM1229 819v103h102v-103h-102zM1434 410v102h102v-102h-102zM1434 614v103h102v-103h-102zM1434 819v103h102v-103h-102zM1434 1024v102h102v-102h-102z" />
<glyph unicode="&#xe000;" horiz-adv-x="921" d="M0 0v922h922v-922h-922z" />
</font>
</defs>
</svg>
